<?xml version="1.0" standalone="yes"?>
<svg xmlns="http://www.w3.org/2000/svg" width="430" height="370">
<path style="fill:#ffffff; stroke:none;" d="M0 0L0 330L10 330L10 320L30 320L30 270L40 270L40 260L50 260L50 250L70 250L70 190L90 190L90 180L100 180L100 130L110 130L110 120L130 120L130 110L140 110L140 60L150 60L150 50L170 50L170 30L180 30L180 20L190 20L190 10L210 10L210 0L0 0z"/>
<path style="fill:#010101; stroke:none;" d="M210 0L210 10L190 10L190 20L180 20L180 30L170 30L170 50L150 50L150 60L140 60L140 110L130 110L130 120L110 120L110 130L100 130L100 180L90 180L90 190L70 190L70 250L50 250L50 260L40 260L40 270L30 270L30 320L10 320L10 330L0 330L0 360L10 360L10 370L160 370L160 360L180 360L180 350L190 350L190 340L200 340L200 320L190 320L190 310L130 310L130 260L140 260L140 250L160 250L160 240L270 240L270 260L280 260L280 270L310 270L310 310L280 310L280 320L250 320L250 330L240 330L240 360L250 360L250 370L390 370L390 360L420 360L420 350L430 350L430 310L400 310L400 240L370 240L370 180L360 180L360 170L340 170L340 120L330 120L330 110L320 110L320 100L300 100L300 40L290 40L290 30L260 30L260 0L210 0z"/>
<path style="fill:#ffffff; stroke:none;" d="M260 0L260 30L290 30L290 40L300 40L300 100L320 100L320 110L330 110L330 120L340 120L340 170L360 170L360 180L370 180L370 240L400 240L400 310L430 310L430 0L260 0z"/>
<path style="fill:#311333; stroke:none;" d="M210 10L210 20L190 20L190 30L180 30L180 50L170 50L170 60L150 60L150 110L140 110L140 120L130 120L130 130L110 130L110 180L100 180L100 190L90 190L90 200L80 200L80 250L70 250L70 260L50 260L50 270L40 270L40 320L30 320L30 330L10 330L10 360L160 360L160 350L180 350L180 340L190 340L190 320L130 320L130 310L120 310L120 260L130 260L130 250L140 250L140 240L160 240L160 230L270 230L270 240L280 240L280 260L310 260L310 270L320 270L320 310L310 310L310 320L280 320L280 330L250 330L250 360L390 360L390 350L420 350L420 320L400 320L400 310L390 310L390 250L370 250L370 240L360 240L360 180L340 180L340 170L330 170L330 120L320 120L320 110L300 110L300 100L290 100L290 40L260 40L260 30L250 30L250 10L210 10z"/>
<path style="fill:#010101; stroke:none;" d="M200 110L200 120L190 120L190 170L200 170L200 180L240 180L240 170L250 170L250 140L240 140L240 130L220 130L220 120L210 120L210 110L200 110z"/>
<path style="fill:#ffffff; stroke:none;" d="M200 120L200 170L240 170L240 140L220 140L220 130L210 130L210 120L200 120M160 240L160 250L140 250L140 260L130 260L130 310L190 310L190 320L200 320L200 340L190 340L190 350L180 350L180 360L160 360L160 370L250 370L250 360L240 360L240 330L250 330L250 320L280 320L280 310L310 310L310 270L280 270L280 260L270 260L270 240L160 240M420 350L420 360L390 360L390 370L430 370L430 350L420 350M0 360L0 370L10 370L10 360L0 360z"/>
</svg>
