<?xml version="1.0" standalone="yes"?>
<svg xmlns="http://www.w3.org/2000/svg" width="32" height="32">
<path style="fill:#30bbf0; stroke:none;" d="M0 0L0 32L32 32L32 0L0 0z"/>
<path style="fill:#f2f8fb; stroke:none;" d="M3 9L3.30556 10.1389L3.66667 10.3333L5 11L5 14.0556L5 16L4.97222 18L4.72222 19.8889L4.33333 20.6944L4.13889 21.2222L3 22L3.77778 22.7222L4.30556 22.75L5.11111 22.9444L6.02778 22.9722L7 23L9 23L11 22.9722L12 22.8889L12.9722 22.6667L13.9167 22.2778L15.5 20.8889L16.5 19L16.75 18L16.9444 16L16.75 14L16.5 13.0278L15.5 11.25L14.75 10.5L12.9722 9.5L11 9.08333L9 9L7 9L3 9z"/>
<path style="fill:#30bbf0; stroke:none;" d="M7 11L7 22L8.5 21.9167L9.05556 21.7778L10.0556 21.5833L11.9167 20.8889L13.5 19.6944L14.5 17.9722L14.8333 16L14.5 14.0833L13.5 12.5L11.9167 11.5L10.9722 11.25L10.0556 11.0833L8.5 11L7 11z"/>
<path style="fill:#f2f8fb; stroke:none;" d="M20 11L18.6667 13L18.3056 13.5556L18 15L20 16L21 16L21.0278 18.0556L21.0833 19.0556L21.4167 20.9444L22 23L23.5 22.8889L24.9722 22.2778L26.5278 20.8889L27.75 19L28.2222 18L28.75 17L29.5278 15.0556L29.9167 13.5L30 12L29 11L27 11.25L26.4444 11.2778L25 12L25.3056 14.0556L25.3889 15L25.3333 16.5L25 18L24.1944 16.5L24.0278 15.9444L23.6389 14.9444L22.9722 13.0556L22.8056 12.5L22 11L20 11z"/>
</svg>
