<?xml version="1.0" standalone="yes"?>
<svg xmlns="http://www.w3.org/2000/svg" width="250" height="189">
<path style="fill:#fdf9f8; stroke:none;" d="M0 0L0 189L250 189L250 0L0 0z"/>
<path style="fill:#feba08; stroke:none;" d="M127 9L127.722 9.72221L128.25 9.75L130 10L129.278 9.27779L128.75 9.25L127 9M87 13L87.6667 12.5L87.6667 12L88 11.1667L89 11L88.25 10.3889L87.2778 10.7222L86.9444 11.3056L86.6389 11.6111L87 13z"/>
<path style="fill:#d92f14; stroke:none;" d="M89.6667 10.3333L89.6667 10.6667L90.3333 10.6667L90 10.3333L89.6667 10.3333z"/>
<path style="fill:#212121; stroke:none;" d="M87 11L87.7778 11.8056L88.25 11.9722L89.5278 12.5556L91 13L91 21L91.7222 20.2222L91.75 19.6944L91.9444 18.8889L91.9722 17.9722L92 16L92 15.0556L92 12L96 12L96 10L93.9444 10.0278L92.9444 10.0833L91 10.3889L90.0556 10.6111L89.0556 10.7778L88.5 10.9167L87 11M97 10L97 12.0556L97.0278 14L97.0833 15L97.3889 16.9444L97.75 18.5L98 20L98.7222 19.2222L98.7778 18.6944L99.1944 17.0278L99.4167 16.0556L100 14L102 14L103 15L103 20L105 20L105 14L104 13L102 13.0556L101 13.25L100.5 13.2778L99 14L99 10L97 10z"/>
<path style="fill:#feba08; stroke:none;" d="M115 10L114.5 12.0556L114.444 13.0556L114.472 14L114.639 15L114.917 16.9444L115 19L115.722 18.2222L115.75 17.6944L115.917 16.8889L115.861 15L115.833 14L115.75 13.0278L115.611 11.3056L115.667 10.7778L115 10z"/>
<path style="fill:#212121; stroke:none;" d="M116 10L115.5 12.0556L115.472 14L115.778 16L115.944 16.9722L116.083 17.8889L116.667 19.2778L117.278 19.6667L119 20L118.694 18.8611L118.333 18.6667L117 18L117.111 16.5278L117.667 15.25L117.861 14.7778L119 14L119 12L117.806 11.3333L117.028 10.6667L116 10M127 10L126.556 11.5L126.333 12.0556L125.611 14L124.833 16L124.472 16.9444L124.083 18.5L124 20L125.333 19.3333L125.694 19.1389L126 18L127.5 18.0278L128.972 18.3056L129.778 18.6111L131.333 19.3889L131.75 19.6667L133 20L132.75 18.5L132.583 17.9444L132.306 16.9444L131.667 15L131.333 14L131 13.0556L130.667 12.0556L130.444 11.5L130 10L127 10z"/>
<path style="fill:#d92f14; stroke:none;" d="M141 10L142 11L141 10z"/>
<path style="fill:#212121; stroke:none;" d="M142 10L141 11L141 13L137 13L136 14L136 15.5L136.111 17.0556L136.278 17.9444L136.861 19.5L138 21L139.444 20.8333L140.556 20.8333L142 21L142.722 19.5L142.75 18.9444L142.944 17.9444L142.972 17L143 15L142.972 13.0278L142.944 12.1111L142.75 11.3056L142.722 10.7778L142 10z"/>
<path style="fill:#feba08; stroke:none;" d="M126 11L127 12L126 11M130 11L131 12L130 11z"/>
<path style="fill:#212121; stroke:none;" d="M151 11L151 13L150 14L149 13L147 13L145.861 14.5L145.306 16.0556L145.25 17.9444L145.417 18.9444L146 21L152 21L152.028 18.9444L152.083 17.9444L152.389 16L152.611 15L152.917 13.0556L153 11L151 11z"/>
<path style="fill:#feba08; stroke:none;" d="M101.667 12.3333L102 12.6667L102.333 12.6667L102 12.3333L101.667 12.3333z"/>
<path style="fill:#d92f14; stroke:none;" d="M108 12L109 13L108 12z"/>
<path style="fill:#212121; stroke:none;" d="M107 15L108.444 14.75L109.556 14.4167L111 14L109 15.3333L108.444 15.6944L107 16L107.25 18L107.278 18.5556L108 20L109.472 19.9444L109.972 19.8611L111.556 19.7778L112.333 19.8333L114 20L113.417 17.9444L113.056 16L112.75 14.0556L112.722 13.5L112 12L110.5 12.0833L109.056 12.5L108.333 12.8889L107.361 13.7778L107 15z"/>
<path style="fill:#feba08; stroke:none;" d="M128 12L129 13L128 12z"/>
<path style="fill:#d92f14; stroke:none;" d="M90 13L90 16L90.6944 15.25L90.6944 14.1944L90.6944 13.75L90 13z"/>
<path style="fill:#feba08; stroke:none;" d="M99 13L100 14L99 13z"/>
<path style="fill:#fdf9f8; stroke:none;" d="M128 13L128.111 14.3889L128.667 15.3333L128.861 15.6389L130 16L129.333 14.25L129.139 13.7222L128 13z"/>
<path style="fill:#feba08; stroke:none;" d="M149 13L150 14L149 13z"/>
<path style="fill:#212121; stroke:none;" d="M75 18L77 18.5833L78 18.7778L78.5 18.9167L80 19L78.5 19.7222L78 19.75L77 19.9444L75 20L75.7778 20.9722L76.3056 21.1389L77.0556 21.5556L78.5 21.9167L80 22L81 21L81 18L79.5556 17.2778L79 17.25L77 17L78.4444 16.2778L79 16.25L81 16L80.2222 14.8611L78.8889 14.3056L78 14.2222L77.1111 14.3611L76.3333 14.7222L75.7222 15.2778L75.1111 16.5278L75 18z"/>
<path style="fill:#feba08; stroke:none;" d="M100.667 14.3333L101 14.6667L101.333 14.6667L101 14.3333L100.667 14.3333z"/>
<path style="fill:#fdf9f8; stroke:none;" d="M109.667 14.3333L110 14.6667L110.333 14.6667L110 14.3333L109.667 14.3333z"/>
<path style="fill:#feba08; stroke:none;" d="M117 14L117 18L117.722 17.2222L117.889 16L117.722 15.2778L117.722 14.7778L117 14M125 14L126 15L125 14M127.333 14.6667L127.333 15.3333L127.667 15.3333L127.667 15L127.333 14.6667M131 14L132 15L131 14z"/>
<path style="fill:#d92f14; stroke:none;" d="M138.667 14.3333L139 14.6667L139.333 14.6667L139 14.3333L138.667 14.3333z"/>
<path style="fill:#212121; stroke:none;" d="M155 14L154.917 16.0556L154.611 18L154.222 19.9444L154.083 20.5L154 22L155.139 21.6389L155.361 21.2778L155.806 20.6667L156.472 19L157.472 17.3056L158.75 16.0556L159.306 15.4444L159.639 15.1667L160 14L158.167 14.1667L157.389 14.2222L156.667 14.1667L155 14z"/>
<path style="fill:#d92f14; stroke:none;" d="M157 14L158 15L157 14z"/>
<path style="fill:#212121; stroke:none;" d="M66 16L66 18L67.5 18.9722L68 19.1389L69.5 19.7222L71 20L69.5556 20.4722L69 20.3333L67 20L67 22L68 23L69.5 22.8889L70.9444 22.2778L71.6667 21.7222L72.6389 20.4722L73 19L71.5 18.2778L71 18.25L70 18.0556L68 18L69.4444 17.2778L70 17.25L72 17L72 15L69.9444 15.0278L69 15.0556L68.0556 15.25L67.5 15.2778L66 16z"/>
<path style="fill:#feba08; stroke:none;" d="M92.3333 15.6667L92.3333 16.3333L92.6667 16.3333L92.6667 16L92.3333 15.6667M99 15L100 16L99 15M108 15L109 16L108 15z"/>
<path style="fill:#d92f14; stroke:none;" d="M109 15L110 16L109 15z"/>
<path style="fill:#feba08; stroke:none;" d="M135 15L135 18L135.694 17.25L135.694 16.1944L135.694 15.75L135 15z"/>
<path style="fill:#fdf9f8; stroke:none;" d="M138 15L138 19L139.389 18.6389L140.333 17.7222L140.889 16.4722L141 15L138 15z"/>
<path style="fill:#feba08; stroke:none;" d="M148 15L148.667 16.0278L149.333 16.8056L150 18L150.611 17.25L150.278 16.2222L149.694 15.6944L149.389 15.3611L148 15M152.333 15.6667L152.333 16.3333L152.667 16.3333L152.667 15.6667L152.333 15.6667z"/>
<path style="fill:#212121; stroke:none;" d="M162 15L161 16L161 22L163.028 22.4722L163.944 22.4444L164.667 22.25L165.639 21.3889L166 20L164.556 20.1667L163.444 20.1667L162 20L163.5 19.2778L164 19.25L165 19.0556L167 19L166.75 17L166.722 16.4444L166 15L162 15z"/>
<path style="fill:#feba08; stroke:none;" d="M188.667 15.3333L189 15.6667L189.333 15.6667L189 15.3333L188.667 15.3333z"/>
<path style="fill:#212121; stroke:none;" d="M59 16L58.2778 17.5L58.25 18.0556L58.0833 19.0556L58.3333 20.9722L59.3333 22.6667L60.1111 23.25L61 23.5556L62.6667 23.3056L63.2778 22.7222L64 21L62.5556 21.25L61.4444 21.5833L60 22L60.7778 20.8611L61.25 20.6667L62.5278 20.1111L64 20L63.6389 18.5278L62.6667 17.2778L61.9444 16.7222L60.5 16.1111L59 16z"/>
<path style="fill:#d92f14; stroke:none;" d="M62 16L63 17L62 16z"/>
<path style="fill:#feba08; stroke:none;" d="M72 16L73 17L72 16z"/>
<path style="fill:#fdf9f8; stroke:none;" d="M77.6667 16.3333L78 16.6667L78.3333 16.6667L78 16.3333L77.6667 16.3333z"/>
<path style="fill:#feba08; stroke:none;" d="M79 16L79 17L81 18L81 16L79 16M90 16L90 19L90.6944 18.25L90.6944 17.1944L90.6944 16.75L90 16z"/>
<path style="fill:#d92f14; stroke:none;" d="M137.333 16.6667L137.333 17L137.667 17.3333L137.667 16.6667L137.333 16.6667z"/>
<path style="fill:#fdf9f8; stroke:none;" d="M147 16L147 19L150 19L150 16L147 16z"/>
<path style="fill:#feba08; stroke:none;" d="M154 16L154 19L154.694 18.25L154.694 17.1944L154.694 16.75L154 16M159 16L160 17L159 16z"/>
<path style="fill:#d92f14; stroke:none;" d="M163 16L163 18L165 18L165 16L163 16z"/>
<path style="fill:#212121; stroke:none;" d="M170 16L170.111 17.9444L170.333 18.75L170.694 19.3889L171.806 20.5556L172.25 20.8333L173 22L171.556 21.5833L170.444 21.25L169 21L169.778 22.3889L170.306 22.7222L171.056 23.3333L172.5 23.8889L174 24L175 23L174.75 21L174.722 20.4444L174 19L175.333 18.3333L175.694 18.1389L176 17L174.5 16.2778L173.944 16.25L173 16.0556L172.056 16.0278L170 16M188 16L188 23L188.75 22.2222L188.833 21.6944L189.167 20.8889L189.361 19.9722L189.611 19.0556L189.917 17.5L190 16L188 16M51 17L51.25 18.5L51.6111 20.0556L51.9167 21.9444L51.9722 22.9444L52 25L54 25L54 19L56 19L57 18L56.2222 17.2778L55.6944 17.25L54.8889 17.0556L54.0278 17.0278L53.0556 17L51 17z"/>
<path style="fill:#feba08; stroke:none;" d="M63 17L64 18L63 17M68 17L69 18L68 17z"/>
<path style="fill:#fdf9f8; stroke:none;" d="M69 17L70 18L69 17z"/>
<path style="fill:#feba08; stroke:none;" d="M70.6667 17.3333L71 17.6667L71.3333 17.6667L71 17.3333L70.6667 17.3333z"/>
<path style="fill:#d92f14; stroke:none;" d="M92 17L92 21L92.7222 20.2222L92.8889 19L92.7222 18.2778L92.7222 17.7778L92 17z"/>
<path style="fill:#feba08; stroke:none;" d="M97 17L97 20L97.6944 19.25L97.6944 18.1944L97.6944 17.75L97 17z"/>
<path style="fill:#fdf9f8; stroke:none;" d="M109.667 17.3333L110 17.6667L110.333 17.6667L110 17.3333L109.667 17.3333z"/>
<path style="fill:#feba08; stroke:none;" d="M132 17L133 18L132 17M169.333 17.6667L169.333 18L169.667 18.3333L169.667 17.6667L169.333 17.6667z"/>
<path style="fill:#d92f14; stroke:none;" d="M172 17L173 18L172 17z"/>
<path style="fill:#212121; stroke:none;" d="M178 18L178.667 19.75L178.861 20.2778L180 21L178.667 22.4167L178.306 22.8056L178 24L180.056 24.7222L181.028 24.8333L182.667 24.2778L183.25 23.6944L183.556 23L183.611 22.3056L183.139 21.3611L182 21L183.333 19.5833L183.694 19.1944L184 18L182.5 17.2778L181.944 17.2778L181 17.1111L179.5 17.2778L178 18M42 19L42.0833 20.5L42.2222 21.0556L42.6111 23L43 25L43.4167 26.9444L44 29L44.7222 28.2778L44.75 27.75L45 26L47.0278 25.6667L47.9444 25.2778L49.25 23.8889L49.5833 22.9722L49.6389 22L49.1389 20.0556L48.9722 19.5L48 18L46.5 18.0833L45.9444 18.2222L45 18.3889L43.5 18.75L42 19z"/>
<path style="fill:#feba08; stroke:none;" d="M56 18L57 19L56 18z"/>
<path style="fill:#fdf9f8; stroke:none;" d="M60 18L61 19L60 18z"/>
<path style="fill:#feba08; stroke:none;" d="M61 18L62 19L61 18M66 18L67 19L66 18M76 18L77 19L76 18M81.3333 18.6667L81.3333 19.3333L81.6667 19.3333L81.6667 19L81.3333 18.6667M160.333 18.6667L160.333 19L160.667 19.3333L160.667 19L160.333 18.6667z"/>
<path style="fill:#fdf9f8; stroke:none;" d="M172.667 18.3333L173 18.6667L173.333 18.6667L173 18.3333L172.667 18.3333z"/>
<path style="fill:#feba08; stroke:none;" d="M68.3333 19.6667L68.3333 20.3333L68.6667 20.3333L68.6667 20L68.3333 19.6667z"/>
<path style="fill:#d92f14; stroke:none;" d="M75.6667 19.3333L76 19.6667L76.3333 19.6667L76 19.3333L75.6667 19.3333z"/>
<path style="fill:#fdf9f8; stroke:none;" d="M77.6667 19.3333L78 19.6667L78.3333 19.6667L78 19.3333L77.6667 19.3333z"/>
<path style="fill:#d92f14; stroke:none;" d="M79 19L80 20L79 19z"/>
<path style="fill:#feba08; stroke:none;" d="M99 19L100 20L99 19M107 19L108 20L107 19M111 19L112 20L111 19M123 19L124 20L123 19z"/>
<path style="fill:#d92f14; stroke:none;" d="M136 19L137 20L136 19z"/>
<path style="fill:#feba08; stroke:none;" d="M145 19L146 20L145 19M162 19L163 20L162 19z"/>
<path style="fill:#fdf9f8; stroke:none;" d="M163 19L163 21L164 21L165 19L163 19z"/>
<path style="fill:#feba08; stroke:none;" d="M165 19L165 20L166 22L166.722 21.2778L166.75 20.75L167 19L165 19z"/>
<path style="fill:#fdf9f8; stroke:none;" d="M180.667 19.3333L181 19.6667L181.333 19.6667L181 19.3333L180.667 19.3333z"/>
<path style="fill:#feba08; stroke:none;" d="M184 19L185 20L184 19M189 19L190 20L189 19M191 49L189.5 48.3333L188.944 48L187 47.0833L185 46.4167L184 46.2222L182 46.0278L180 46L178 46.0833L177 46.25L176 46.5L175 46.9167L173 48.0278L171.083 49.4167L169.417 51.0833L168.028 53L167.389 54L166.25 56L165.778 57L165.25 58L164.833 59L164.389 60L163.694 62L163.139 64L162.861 65L162.389 67L162 69L161.611 71L161.389 72L161.083 74L161.028 75L160.917 77L160.611 79L160.389 80L160.083 82L160.028 83L160 85L160 86L160.028 88L160.083 89L160.389 91L160.611 92L160.917 94L160.972 95L161 97L161.028 98L161.083 99L161.389 101L161.639 102L162.139 104L162.389 105L162.694 106L163.333 108L164.028 110L164.417 111L165.417 113L166.028 113.972L166.694 114.917L168.222 116.583L170.028 117.917L172 118.917L174 119.583L175 119.778L176 119.917L178 119.972L180 119.778L181 119.583L183 118.889L184.889 117.75L186.222 116.472L187 115L189.056 116.722L190.056 117.333L192 117.889L194 117.889L195 117.667L195.972 117.278L196.889 116.667L198.278 114.972L198.889 113L198.972 112L199 110.056L199 108L197.778 107.222L197.444 106.694L196.5 104.972L196.083 103L196 101L196 100L196 99L196 97L196.028 95L196.083 94L196.389 92L196.778 90L196.917 89L197 87L197 86L197 84L197 83L197.028 81L197.083 80L197.389 78L197.778 76L197.917 75L198.083 73L198.222 72L198.611 70L198.944 68L199.056 67L199.389 65L199.611 64L199.917 62L200.083 60L200.222 59L200.639 57L200.861 56L201.139 55L201.361 54L201.611 53L201.806 52L202.194 50L202.694 48L203.333 46L204 44L204.306 43L204.611 42L205.139 40L205.389 39L206 37L206.333 36L207 34L208 31L208.333 30L209 28L209.583 26L209.778 25L209.972 23.0556L210 22.5L210 21L208.5 20.5L207.944 20.1944L206 19.4722L204 19.0833L202 19L201 19.0278L200 19.1111L198.111 19.7222L197.333 20.3333L196.722 21.1111L196.306 22.0278L195.806 24L195.611 25L195.139 27L194.861 28L194.639 29L194.139 31L193.639 33L193.389 34L193.056 36L192.944 37L192.583 39L192 41L191.417 43L191.222 44L191.083 45L191 46.9444L191 49z"/>
<path style="fill:#212121; stroke:none;" d="M28 22L28.5833 24.0556L28.8056 25.0556L29.2222 26.9444L29.2778 27.5L30 29L30.7222 28.2222L30.75 27.6944L30.9444 26.8889L30.9722 26.0278L31 25.0556L31 23L32.2222 23.7778L32.5556 24.3056L33.1389 25.0833L34.0278 26.6667L34.5833 27.2778L34.8333 27.6389L36 28L35.75 26.5L35.3889 25L35.2222 24.0556L35.0833 23.5L35 22L37 23L38 23L38.0278 24.4722L38.2778 25.7222L38.8611 26.6389L40 27L39.9167 25.5L39.7778 24.9444L39.3333 23.0556L38.9722 22.0556L38.8056 21.5L38 20L36.5 20.0833L35.9444 20.2222L34.9444 20.3889L34 20.6389L33 20.8611L32 21.1389L31.0556 21.3611L29.5 21.75L28 22z"/>
<path style="fill:#feba08; stroke:none;" d="M38 20L39 21L38 20z"/>
<path style="fill:#fdf9f8; stroke:none;" d="M45 20L44 21L44 23L45 24L47 24L48 23L48 21L47 20L45 20z"/>
<path style="fill:#feba08; stroke:none;" d="M49 20L50 21L49 20z"/>
<path style="fill:#fdf9f8; stroke:none;" d="M69.6667 20.3333L69.6667 20.6667L70.3333 20.6667L70 20.3333L69.6667 20.3333z"/>
<path style="fill:#d92f14; stroke:none;" d="M98 20L99 21L98 20z"/>
<path style="fill:#feba08; stroke:none;" d="M103 20L104 21L103 20M132 20L133 21L132 20M137 20L138 21L137 20M139 20L140 21L139 20z"/>
<path style="fill:#d92f14; stroke:none;" d="M142 20L143 21L142 20z"/>
<path style="fill:#feba08; stroke:none;" d="M164 20L165 21L164 20z"/>
<path style="fill:#d92f14; stroke:none;" d="M172 20L173 21L172 20z"/>
<path style="fill:#feba08; stroke:none;" d="M175.333 20.6667L175.333 21.3333L175.667 21.3333L175.667 20.6667L175.333 20.6667M178 20L179 21L178 20M182 20L183 21L182 20M28 21L29 22L28 21z"/>
<path style="fill:#d92f14; stroke:none;" d="M29 21L30 22L29 21z"/>
<path style="fill:#feba08; stroke:none;" d="M30 21L31 22L30 21M72 21L73 22L72 21z"/>
<path style="fill:#d92f14; stroke:none;" d="M76 21L77 22L76 21M151 21L152 22L151 21z"/>
<path style="fill:#feba08; stroke:none;" d="M171 21L172 22L171 21z"/>
<path style="fill:#fdf9f8; stroke:none;" d="M172 21L173 22L172 21z"/>
<path style="fill:#feba08; stroke:none;" d="M12 22L12.7222 22.7222L13.25 22.75L15 23L14.2778 22.2778L13.75 22.25L12 22M35 22L36 23L35 22M39 22L40 23L39 22z"/>
<path style="fill:#d92f14; stroke:none;" d="M42 22L43 23L42 22z"/>
<path style="fill:#feba08; stroke:none;" d="M58 22L59 23L58 22M71 22L72 23L71 22M162 22L163 23L162 22M169 22L170 23L169 22M177 22L178 23L177 22z"/>
<path style="fill:#fdf9f8; stroke:none;" d="M180.667 22.3333L181 22.6667L181.333 22.6667L181 22.3333L180.667 22.3333z"/>
<path style="fill:#d92f14; stroke:none;" d="M187 22L188 23L187 22z"/>
<path style="fill:#212121; stroke:none;" d="M9 32L11.0556 32.5833L13 32.8889L14.9722 32.6667L16.6667 31.7222L17.6389 30.4722L18 29L16.5 29.3333L15.9444 29.6111L14.0556 30.3889L13.0556 30.6944L12.5 30.8889L11 31L10 30L10 26L11 25L16 25L16 23L13.9444 23L12.9444 23.0278L12 23.1111L10.1111 23.7222L8.72222 25.1111L8.19444 27L8.25 28L8.38889 28.9444L8.75 30.5L9 32M21 23L20 24L20 25.5L20.1111 27.0556L20.2778 27.9444L20.8611 29.5L22 31L23.4722 30.7222L24.8056 30.0556L25.5 29.5L26.4722 27.9167L26.6389 26.9722L26.25 25.1111L24.8889 23.7222L24.0278 23.3333L22.5 23.0278L21 23z"/>
<path style="fill:#d92f14; stroke:none;" d="M28 23L29 24L28 23z"/>
<path style="fill:#feba08; stroke:none;" d="M37 23L38 24L37 23z"/>
<path style="fill:#d92f14; stroke:none;" d="M39 23L40 24L39 23z"/>
<path style="fill:#feba08; stroke:none;" d="M42 23L43 24L42 23M47 23L48 24L47 23M59 23L60 24L59 23M109 23L109.778 23.7222L110.306 23.75L111.111 23.9444L112.028 23.9722L112.944 24L113.944 24L116 24L115.222 23.2778L114.694 23.25L113.889 23.0556L112.972 23.0278L112.056 23L111.056 23L109 23M16 24L17 25L16 24M28 24L29 25L28 24M88 24L88.7778 24.7222L89.25 24.75L90.0556 24.9444L92 25L91.2222 24.2778L90.75 24.25L89.9444 24.0556L88 24z"/>
<path style="fill:#d92f14; stroke:none;" d="M13 42L13.7778 43.4722L14.3056 43.9722L15.1111 44.8333L17 46.3889L18.9167 48.0833L19.7778 49.0278L21.3611 51L22.1389 52L22.8611 53L24.3056 55L25 56L26.3333 58L27.6111 60L28.7222 62L29.6111 64L29.9722 65L30.3333 66L30.6667 67L31.3333 69L32 71L32.3056 72L32.6111 73L33.1389 75L33.3611 76L33.6111 77L33.9167 79L34.0833 81L34.2222 82L34.6111 84L34.9167 86L34.9722 87L35 89L35 90L35 93L35 96L35 98L34.9722 100L34.9167 101L34.6111 103L34.3889 104L34.0833 106L34.0278 107L34 109L33.9722 111L33.9167 112L33.6111 114L33.2222 116L33.0833 117L32.9722 119L32.9167 120L32.6111 122L32.3889 123L32.0833 125L32.0278 126L31.9722 128L31.9167 129L31.6111 131L31.3889 132L31.0556 134L30.9444 135L30.6111 137L30.3889 138L30.0556 140L29.9444 141L29.6111 142.944L29.25 144.5L29 146L30.5 145.917L31.0556 145.778L33 145.389L35 145.056L36 144.944L38 144.611L39 144.361L40 144.139L42 143.639L43 143.389L45 143.056L46 142.944L48 142.611L49 142.389L51 142.056L52 141.944L54 141.611L55 141.389L57 141.056L58 140.944L60 140.611L62 140.222L63 140.083L65 139.917L67 139.611L69 139.222L70 139.083L72 138.917L74 138.611L75 138.389L77 138.083L78 138.028L80 138L81 137.972L82 137.917L84 137.611L85 137.389L87 137.083L88 137.028L90 137L92 137L93 136.972L94 136.917L96 136.611L97 136.389L99 136.083L100 136.028L102 136L103 135.972L104 135.917L106 135.611L107 135.389L109 135.083L110 135.028L111 135L113 135L118 135L119.472 132.944L121.083 131L123 129L124 128L126 126L127 125L129 123.111L131 121.833L132 121.667L132.972 121.833L134.694 123.111L135.361 124.028L135.889 125L136.583 127L136.833 129L136.611 131L136.389 131.944L136.222 132.944L136.083 133.5L136 135L143 135L143.583 132.944L143.778 131.944L143.917 131L144 129L144 128L144 127L143.917 125L143.778 124.056L143.583 123.056L143 121L140.944 120.917L139 120.611L138 120.389L136 120.056L135 119.944L133 119.611L132 119.361L130 118.833L128 118.139L127 117.722L125 116.528L123 114.917L121.083 113L119.5 111L118.944 110.056L118.278 108.5L118 107L117.278 107.778L117.222 108.306L116.972 109.111L116.611 111L116.361 112L116.111 113L115.389 115L114.278 116.917L112.778 118.528L110.972 119.722L109 120.444L107 120.5L106 120.25L104.056 119.417L103.5 119.167L102 118L100 118L98.5 119.417L97.9444 119.806L96.9444 120.556L95 121.528L94 121.833L93 122.139L91 122.611L89 122.917L87 123.083L85 123.389L84 123.611L82 123.917L81 123.972L79 124L77 124L76 124L74 123.917L72 123.5L70.0833 122.5L69.25 121.75L68.4722 120.917L67.2778 119L66.8611 118L66.4722 117L66.0833 115L66 113L66 112L66 110L66 95L82 95L83 96L83 101L85 101L85 91L83.5 90.75L81.9444 90.3889L80 90.0833L79 90.0278L77 90L75 90L73 89.8889L71 89.2778L69.0833 87.8889L68.25 86.9722L67.5 86L66.5 84L66.2222 83L65.8056 81L65.6111 80L65.3889 79L65.0833 77L65.0278 76L65 74L65 72L65 64L65 61L64.9722 59L64.9167 58L64.6111 56L64.2222 54L64.0833 53L64 51L64 50L64 48L64 46L64 45L64.0833 43L64.4167 41L64.7222 40L65.6389 38L66.3056 37.0278L68.0278 35.25L70 33.9444L71 33.5L73 33.0833L75 33L76 33L78 33.0278L79 33.0833L81 33.3889L82 33.6389L84 34.1389L85 34.3611L86 34.6389L87 34.8611L89 35.3889L91 36.0278L92 36.3889L94 37.25L95 37.7778L96 38.2222L97 38.7778L98 39.25L99 39.8333L100 40.3889L101.917 41.6944L103.611 43.2222L105.139 45.0278L105.833 46L106.528 47L107.583 49L107.972 50L108.5 52L108.5 54L108.278 55L108 56L107.417 58L107.056 60L106.944 61L106.611 63L106.361 64L106.139 65L105.861 66L105.639 66.9444L105.25 68.5L105 70L103.5 69.5L102.944 69.1667L101 68.25L99 67.3889L97 66.6111L95 65.8056L94 65.3889L92 64.6944L91 64.3889L90 64.1389L88.0556 63.6111L86 63L86.25 61.5L86.5 60.0278L86.25 58.5L85.3889 57.5278L84 57L84 68L85.5 68.0833L86.0556 68.2222L87.0556 68.3889L88 68.6389L89 68.8611L90 69.1389L92 69.6389L93 69.8611L95 70.4722L97 71.5L98.9722 73.0833L99.9167 74.0278L101.5 76L102.056 77L102.5 78L102.917 80L103 82L103 83L103 85L102.972 86L102.917 87L102.611 89L102.389 90L102.083 92L102.028 93L102 95L102 96.9444L102 100L103.5 99.3333L104.056 99.0278L106 98.3056L107 98.1111L109 98.0833L111 98.5L112.972 99.5L114.667 101.028L115.639 102.5L116 104L116.972 103.222L117.167 102.694L117.667 101.889L118.056 100.972L119.083 99L119.694 98L120.972 96L121.583 95.0556L122.111 94.0556L122.472 93.5L123 92L121.778 90.5L120.806 88.9444L120.278 88L119.389 86L118.694 84L118.389 83L118.139 82L117.861 81L117.389 79L117 77L116.611 75L116.389 74L116.083 72L116.028 71L116 70L116 68L116.028 66L116.083 65L116.389 63L116.639 62L117.139 60L117.361 59L117.639 58L118.167 56L118.444 55L119.25 53L119.778 52L120.25 51L121.472 49L123.083 47.0278L124.028 46.0833L125 45.2222L127 43.6944L128 43.0278L129 42.4167L131 41.4722L132 41.1667L134 40.6389L135 40.4167L137 40.3056L139 40.6389L141 41.1389L142 41.3611L143 41.6111L145 41.9167L146 41.9722L148 42L150 42L159 42L159.444 43.5L159.667 44.0556L160.306 46L160.583 47L160.917 49L160.917 51L160.583 53L159.889 55L159.361 56L157.944 57.8889L156.5 59.2222L155 60L155.25 61.5L155.611 63.0556L155.917 65L155.972 66L156 68L156 70L156 72L155.972 74L155.917 75L155.611 77L155.389 78L155.194 79L154.806 81L154.583 82L154.306 83L153.611 85L152.75 87L152.222 88L151.139 90L150.528 91L149.75 92L147.972 93.9722L146 95.75L145 96.5278L143 97.7222L141 98.5278L139 98.9167L138 98.9722L136.056 99.0556L135.056 99.25L134.5 99.2778L133 100L133.778 101.139L134.306 101.333L135.111 101.722L137 102.056L138 102.222L139 102.389L140 102.611L142 102.917L144 103.083L145 103.222L146 103.417L147 103.694L149 104.417L150 104.917L151 105.5L152.972 107.083L154.778 109L156.278 111L156.917 112L157.917 114L158.611 116L158.861 117L159.361 119L159.611 120L159.917 122L160 124L160 125L159.917 127L159.611 129L159.361 130L159.139 131L158.861 132L158.389 133.944L158.222 134.944L158.083 135.5L158 137L160.056 137L161.056 137.028L162 137.083L164 137.389L165 137.611L167 137.917L169 138L171 138.083L173 138.389L174 138.639L176 139.139L177 139.361L178 139.611L180 139.917L182 140.028L183 140.083L185 140.389L186 140.639L187 140.861L188 141.139L190 141.611L191 141.806L193 142.194L195 142.611L197 143L199 143.389L201 143.861L202 144.139L204 144.639L205 144.861L206 145.139L207 145.361L209 145.861L210 146.139L211 146.361L212 146.639L213 146.861L214 147.139L215 147.361L216 147.639L217 147.861L219 148.361L220 148.639L221 148.861L223 149.361L223.944 149.611L224.944 149.778L225.5 149.917L227 150L226.972 148.5L226.778 146.944L226.611 146L226.194 144L225.806 142L225.611 141L225.389 140L225.194 139L224.806 137L224.389 135L224.056 133L223.944 132L223.611 130L223.389 129L223.056 127L222.944 126L222.778 125L222.389 123L222.083 121L222.028 120L221.917 118L221.778 117L221.389 115L221.222 114L221.083 113L220.917 111L220.778 110L220.389 108L220.083 106L220.028 105L220 103L219.972 102L219.917 101L219.611 99L219.389 98L219.083 96L219.028 95L219 94L219 92L219 85L219 79L219 77L219.028 76L219.083 75L219.389 73L219.639 72L220.139 70L220.361 69L220.639 68L220.861 67L221.389 65L222.028 63L222.389 62L223.25 60L223.778 59L224.222 58L224.778 57L225.25 56L226.389 54L227.028 53L228.417 51L230.083 49L232 47L233 46L235 44.0833L236.944 42.4722L239 41L238.222 39.8611L237.694 39.6389L236.889 39.1944L235 38.6389L234 38.3611L233 38.1389L232 37.8611L230 37.3889L229 37.1944L227 36.8056L226 36.6111L224 36.1389L223 35.8611L222 35.6389L221 35.3889L220 35.1944L218 34.8056L217 34.6111L216 34.3889L214 34.0833L213.056 34.0278L212.056 34L210 34L209.556 35.5L209.333 36.0556L208.694 38L208.389 39L207.861 41L207.611 42L207.306 43L206.694 45L206.389 46L205.861 48L205.639 49L205.361 50L205.139 51L204.861 52L204.361 54L204.139 55L203.639 57L203.389 58L203.056 60L202.944 61L202.611 63L202.389 64L202.194 65L201.806 67L201.611 68L201.222 70L201.083 71L200.972 73L200.917 74L200.611 76L200.389 77L200.083 79L200.028 80L200 82L199.972 84L199.917 85L199.611 87L199.222 89L199.083 90L199 92L199 94L199 97L199 99L199 101L199.028 102L199.333 104L199.694 105L200.778 107L201.306 108L201.889 110L201.917 112L201.5 114L200.5 116L198.917 117.917L197.972 118.75L197 119.5L195 120.5L193 120.833L191.056 120.556L190.056 120.139L189.5 119.972L188 119L186.5 119.528L185.944 119.889L184.944 120.389L184 120.944L182 121.917L180 122.583L178 122.833L177 122.75L175 122.361L173 121.833L171 121.056L170 120.5L168 118.917L166.028 117L165.083 116L163.472 114L162.278 112L161.833 111L161.389 110L160.694 108L160.139 106L159.861 105L159.639 104L159.361 103L159.139 102L158.639 100L158.389 99L158.083 97L158 95L158 93L158 91L158 87L158 80L158 78L158.028 76L158.083 75L158.389 73L158.611 72L159 70L159.194 69L159.389 68L159.861 66L160.139 65L160.694 63L161.389 61L161.806 60L162.639 58L163.056 57L164.056 55L164.639 54L165.194 53L166.472 51L168.083 49.0833L169.028 48.2222L170 47.4167L172 46.0278L174 44.8333L175 44.2778L176 43.8611L177 43.4722L178 43.25L179 43.0833L181 43.0278L182 43.0833L183 43.2222L184 43.3889L185.944 43.7778L187.5 43.9722L189 44L189.083 42.5L189.222 41.9444L189.611 40L189.806 39L190.194 37L190.389 36L190.611 35L190.917 33.0556L190.972 32.0556L191 30L189.5 29.9167L188.944 29.7778L187.944 29.6111L186 29.2222L185 29.0833L183 28.9167L182 28.7778L180 28.3889L178 28.0833L176 27.9722L175 27.9167L173 27.6111L172 27.3889L170 27.0833L169 27.0278L168 27L166 26.9722L165 26.9167L163 26.6111L162 26.3889L160 26.0833L159 26.0278L158 26L156 25.9722L155 25.9167L153 25.6111L152 25.3889L150 25.0833L148 25L146 25L145 25L143 24.9722L142 24.9167L140 24.6111L139 24.3889L137 24.0833L136 24.0278L134 24L132 24L129 24L116 24L102 24L99 24L97 24L95 24.0278L94 24.0833L92 24.3889L91 24.6111L89 24.9167L88 24.9722L87 25L85 25L83 25.0278L82 25.0833L80 25.3889L79 25.6111L77 25.9444L75 26.2222L74 26.3889L72 26.7778L71 26.9167L69 27.0278L68 27.0833L67 27.2222L65 27.6111L64 27.8056L62 28.1944L61 28.3889L59 28.8056L57 29.1944L56 29.3889L54 29.8056L52 30.1944L51 30.3889L49 30.8611L48 31.1389L47 31.3611L46 31.6389L45 31.8611L43 32.3611L42 32.6389L41 32.8611L39 33.3889L38 33.6944L36 34.3056L35 34.6111L34 34.8611L32 35.3889L31 35.6944L30 36L28 36.6667L26 37.3333L25 37.6667L23 38.3889L22 38.8056L20 39.6111L19 39.9722L18 40.3333L17 40.6667L15.0556 41.3333L14.5 41.5556L13 42z"/>
<path style="fill:#feba08; stroke:none;" d="M139.667 24.3333L140 24.6667L140.333 24.6667L140 24.3333L139.667 24.3333z"/>
<path style="fill:#212121; stroke:none;" d="M187 24L187 26L189 26L189 25L187 24z"/>
<path style="fill:#feba08; stroke:none;" d="M188 24L189 25L188 24M14.6667 25.3333L14.6667 25.6667L15.3333 25.6667L15 25.3333L14.6667 25.3333M19 25L19 28L19.6944 27.25L19.6944 26.1944L19.6944 25.75L19 25z"/>
<path style="fill:#fdf9f8; stroke:none;" d="M22 25L22 29L24 29L25 28L25 26L24 25L22 25z"/>
<path style="fill:#d92f14; stroke:none;" d="M24 25L25 26L24 25z"/>
<path style="fill:#feba08; stroke:none;" d="M33.3333 25.6667L33.3333 26L33.6667 26.3333L33.6667 25.6667L33.3333 25.6667M35 25L36 26L35 25M48 25L49 26L48 25M78.6667 25.3333L79 25.6667L79.3333 25.6667L79 25.3333L78.6667 25.3333M152 25L152.722 25.7222L153.25 25.75L155 26L154.278 25.2778L153.75 25.25L152 25M186 25L187 26L186 25M21 26L22 27L21 26M70 26L70.7778 26.7222L71.25 26.75L72.0556 26.9444L74 27L73.2222 26.2778L72.75 26.25L71.9444 26.0556L70 26M162 26L162.722 26.7222L163.25 26.75L165 27L164.278 26.2778L163.75 26.25L162 26z"/>
<path style="fill:#d92f14; stroke:none;" d="M21 27L22 28L21 27M38.6667 27.3333L39 27.6667L39.3333 27.6667L39.3333 27.3333L38.6667 27.3333M43.3333 27.6667L43.3333 28L43.6667 28.3333L43.6667 27.6667L43.3333 27.6667z"/>
<path style="fill:#feba08; stroke:none;" d="M64.6667 27.3333L65 27.6667L65.3333 27.6667L65 27.3333L64.6667 27.3333M172.667 27.3333L173 27.6667L173.333 27.6667L173 27.3333L172.667 27.3333z"/>
<path style="fill:#d92f14; stroke:none;" d="M26 28L27 29L26 28z"/>
<path style="fill:#feba08; stroke:none;" d="M29 28L30 29L29 28M31 28L32 29L31 28M45 28L46 29L45 28M60 28L61 29L60 28M180.667 28.3333L181 28.6667L181.333 28.6667L181 28.3333L180.667 28.3333z"/>
<path style="fill:#d92f14; stroke:none;" d="M8 29L9 30L8 29M10 29L11 30L10 29z"/>
<path style="fill:#feba08; stroke:none;" d="M15 29L16 30L15 29z"/>
<path style="fill:#d92f14; stroke:none;" d="M20 29L21 30L20 29z"/>
<path style="fill:#feba08; stroke:none;" d="M30 29L31 30L30 29M54.6667 29.3333L55 29.6667L55.3333 29.6667L55 29.3333L54.6667 29.3333M21 30L22 31L21 30z"/>
<path style="fill:#d92f14; stroke:none;" d="M24 30L25 31L24 30z"/>
<path style="fill:#feba08; stroke:none;" d="M50 30L51 31L50 30M191.333 30.6667L191.333 31L191.667 31.3333L191.667 31L191.333 30.6667M46 31L47 32L46 31z"/>
<path style="fill:#d92f14; stroke:none;" d="M10 32L11 33L10 32z"/>
<path style="fill:#feba08; stroke:none;" d="M42 32L43 33L42 32M38 33L39 34L38 33M70 33L71 34L70 33z"/>
<path style="fill:#fdf9f8; stroke:none;" d="M85 90L86 91L86 101L82 101L82 96L80.5 96L78.9444 95.9167L78 95.7778L76 95.3889L75 95.25L74 95.1667L73 95.25L72 95.3889L70 95.7778L69.0556 95.9167L67.5 96L66 96L66 106L66 109L66 111L66 113L66.0278 114L66.0833 115L66.4167 117L66.7222 118L67.6389 119.972L68.3056 120.917L70.0278 122.5L72 123.5L74 123.917L75 123.972L76 124L78 123.917L80 123.611L81 123.389L83 123.083L84 123.028L86 122.972L87 122.917L89 122.611L90 122.389L92 122.083L94 121.917L96 121.5L97.8889 120.556L99.2222 119.417L100 118L101.5 118.5L102.056 118.806L104 119.528L106 119.917L108 120L109 119.972L110 119.889L111.972 119.278L113.75 117.889L114.5 116.972L115.5 115L115.917 113L116 111L116 110L116 109L116 107L116 106L115.917 104L115.5 102.083L115.056 101.25L114.5 100.472L113.75 99.8611L111.972 98.8611L111 98.4722L109 98.0833L107 98.0833L105.056 98.4444L103.5 99.0278L102 100L102 95L102 93L102.028 92L102.083 91L102.389 89L102.778 87L102.917 86L103 84L103 83L102.972 81L102.917 80L102.583 78L101.889 76L101.361 75.0278L99.8889 73.25L98.9722 72.5L97 71.4167L95 70.6667L93 70L91 69.3333L90 69L88 68.4167L86.0556 68.0833L85.0556 68.0278L83 68L83 57L84.4444 57.4167L85.5556 57.75L87 58L87 63L88 64L89.5 64.0833L91.0556 64.4167L93 65.0278L94 65.3889L95 65.8056L97 66.6111L99 67.3889L101 68.25L102.944 69.1667L103.5 69.5L105 70L105.083 68.5L105.389 66.9444L105.861 65L106.139 64L106.361 63L106.861 61L107.139 60L107.611 58L107.917 56L107.972 55L108 53L107.917 51L107.528 49L106.722 47L106.139 46L105.528 45L103.917 43.0833L102 41.4722L101 40.8611L100 40.25L98 39.2222L97 38.7778L96 38.2222L95 37.7778L94 37.25L92 36.3889L91 36.0278L89 35.3889L88 35.1389L87 34.8611L85 34.3889L83 34L81 33.6111L79 33.2222L78 33.0833L76 33L75 33L73 33.0833L71 33.4722L69.0278 34.2778L67.25 35.4722L66.4722 36.25L65.8611 37.0833L64.8611 39L64.4722 40L64.0833 42L64 44L64.0278 45L64.0833 46L64.3889 48L64.6111 49L64.9167 51L64.9722 52L65 54L65 56L65 64L65 67L65.0278 69L65.0833 70L65.3889 72L65.6111 73L65.9167 75L65.9722 76L66 77L66 79L66 81L66.0833 83L66.25 84L66.5 85L67.5 86.9167L68.25 87.75L70.0278 89.0556L71 89.5L73 89.9167L75 90L76 90L77 90L79 90L85 90z"/>
<path style="fill:#feba08; stroke:none;" d="M80.6667 33.3333L81 33.6667L81.3333 33.6667L81 33.3333L80.6667 33.3333M210.667 33.3333L211 33.6667L211.333 33.6667L211.333 33.3333L210.667 33.3333M35 34L36 35L35 34M68 34L69 35L68 34M85 34L86 35L85 34M216.667 34.3333L217 34.6667L217.333 34.6667L217 34.3333L216.667 34.3333M89 35L90 36L89 35M190.333 35.6667L190.333 36L190.667 36.3333L190.667 35.6667L190.333 35.6667M209 35L210 36L209 35M221 35L222 36L221 35M28 36L29 37L28 36z"/>
<path style="fill:#fdf9f8; stroke:none;" d="M42 66L43.5 65.5L44.0556 65.1667L45.0556 64.7222L46 64.1667L47 63.6389L48 63.0556L50 62.0556L51 61.6389L53 60.8056L54 60.3889L56 59.6667L57 59.3333L58.9444 58.6667L59.5 58.4444L61 58L60.9722 55.9444L60.9167 54.9444L60.6111 53L60.3889 52L60.0833 50L60.0278 49L60 47L59.9722 45L59.9167 44L59.6111 42L59.3889 41L59.0833 39.0556L59.0278 38.0556L59 36L57.5 36.0833L55.9444 36.4722L54 37.25L53 37.7778L52 38.2222L51 38.7778L49 39.7778L48 40.25L46 41.3889L45 42.0278L43 43.3333L42 44L40.1111 45.4167L38.7222 47.0833L38.1944 49L38.25 50L38.6944 52L39 53L39.6111 55L40.1389 57L40.3611 58L40.6389 59L40.8611 60L41.1389 61L41.6111 62.9444L41.7778 63.9444L41.9167 64.5L42 66z"/>
<path style="fill:#feba08; stroke:none;" d="M59 36L59 42L59.7222 41.2222L59.75 40.6944L59.9444 39.8889L59.9444 38.1111L59.75 37.3056L59.7222 36.7778L59 36M92 36L93 37L92 36M225.667 36.3333L226 36.6667L226.333 36.6667L226 36.3333L225.667 36.3333M25 37L26 38L25 37M53 37L54 38L53 37M65 37L66 38L65 37M94 37L95 38L94 37M230.667 37.3333L231 37.6667L231.333 37.6667L231 37.3333L230.667 37.3333M22 38L23 39L22 38M51 38L52 39L51 38M96 38L97 39L96 38M208 38L209 39L208 38M234.667 38.3333L235 38.6667L235.333 38.6667L235 38.3333L234.667 38.3333M20 39L21 40L20 39M49 39L50 40L49 39M98 39L99 40L98 39M238 39L239 41L240 41L240 39L238 39M17 40L18 41L17 40M47 40L48 41L47 40M100 40L101 41L100 40M134 40L134.778 40.7222L135.306 40.75L136.056 40.9444L136.972 40.9722L139 41L138.222 40.2778L137.694 40.25L136.944 40.0556L136.028 40.0278L134 40M130 41L131 42L130 41M142 41L143 42L142 41M44 42L45 43L44 42M103 42L104 43L103 42M128 42L129 43L128 42M144 42L144.778 42.7222L145.25 42.75L146.056 42.9444L148 43L147.222 42.2778L146.75 42.25L145.944 42.0556L144 42M158 42L159 43L158 42M207 42L208 43L207 42M236 42L237 43L236 42M13 43L14 44L13 43M126 146L126.083 144.5L126.25 143.944L126.5 142.944L127.472 141L128.167 140L129.639 138L130.361 137L131.833 135L132.528 134L133.5 132L133.75 131L133.917 130L133.972 128L133.917 127L133.583 125.056L133 123L131 123L130.222 124.5L129.694 125.056L128.889 126.056L127 128L126 129L124.028 131L123.083 132L121.389 134L120.639 135L119.861 136L119.139 137L118.389 138L117.028 140L116.417 141L115.417 143L115.028 144L114.444 146L114.333 148L114.5 149L115.278 150.972L115.861 151.917L116.472 152.75L117.25 153.528L119.028 154.722L121 155.611L123 156.306L124 156.583L126 156.917L127 156.972L128 157L130 157L132 157L133 156.972L134 156.917L136 156.583L137 156.306L139 155.583L141 154.583L142 153.972L143 153.306L145 151.778L146 150.917L147.917 149L149.583 147L150.306 146L151.611 144L152.167 143L152.75 142L153.222 141L153.75 140L154.611 138L154.972 137L155.611 135L155.861 134L156.361 132L156.611 131L156.917 129L156.972 128L157 127L157 125L157 123L157 122L156.972 120L156.917 119L156.528 117L155.806 115L155.361 114L154.917 113L153.694 111L151.972 109.111L151 108.306L149 107.111L148 106.722L147 106.417L145 106L143 105.611L142 105.389L140 105.056L139 104.944L137 104.611L136 104.361L135 104.111L133.056 103.417L131.5 102.667L130 102L130.5 100.5L130.806 99.9444L131.167 99L131.722 97.5L132 96L134.056 96.5833L136 96.8333L137 96.75L139 96.3611L140 96.1389L142 95.5278L144 94.5L144.972 93.75L146.778 91.9722L147.583 91L148.917 89L149.917 87L150.667 85L151.306 83L151.611 82L151.861 81L152.361 79L152.611 78L152.917 76L152.972 75L153 73L153 72L153 70L153 67L153 66L152.972 64L152.917 63L152.528 61L151.806 59.0556L151.5 58.5L151 57L156 57L156.806 55.5L156.972 54.9444L157.583 53L157.917 51L158 49L158 48.0556L158 45L150 45L148 45L147 45L145 44.9167L143 44.5278L141 43.8333L140 43.4722L138 43.0833L136 43.0278L134 43.25L133 43.4722L131 44.25L130 44.7778L129 45.25L127.028 46.4722L125.222 48.0833L124.417 49.0278L123.722 50L123.083 51L122.083 53L121.694 54L121 56L120.333 58L120 59L119.417 61L119.222 62L119.083 63L119 65L119 66L119 68L119 70L119.028 72L119.083 73L119.389 75L119.611 76L119.806 77L120.194 79L120.389 80L120.639 81L120.861 82L121.139 83L121.389 84L122.028 86L122.417 87L122.917 88L124.111 90L124.639 91L125 92L124.778 94L124.278 95L123.667 96L122.389 98L121.278 100L120.861 101L120.472 102L120.111 104L120.111 105L120.417 107L120.722 108L121.639 110L123.111 111.972L124.028 112.917L126 114.5L128 115.583L129 115.972L131 116.667L132 117L134 117.583L135 117.778L136 117.917L138 118.028L140 118.25L141 118.5L142.972 119.5L143.917 120.25L144.75 121.083L146.056 123L146.5 124L146.917 126L146.972 127L146.917 129L146.778 130L146.583 131L145.972 133L145.611 134L144.722 136L143.528 138L142.75 139L141.917 140L140 141.972L139 142.917L137 144.5L135 145.5L134 145.75L133 145.917L131 146L129.056 146L126 146M159 43L160 44L159 43M176.667 43.3333L177 43.6667L177.333 43.6667L177 43.3333L176.667 43.3333M184 43L185 44L184 43M41 44L42 45L41 44M125 44L126 45L125 44M174 44L175 45L174 44M187.667 44.3333L188 44.6667L188.333 44.6667L188 44.3333L187.667 44.3333M172 45L173 46L172 45M206 45L207 46L206 45M17 46L18 47L17 46M38 46L39 47L38 46M60 46L60 53L60.7222 52.2222L60.75 51.6944L60.9444 50.8889L60.9722 49.9722L60.9444 48.1111L60.75 47.3056L60.7222 46.7778L60 46M106 46L107 47L106 46M160.333 46.6667L160.333 47.3333L160.667 47.3333L160.667 46.6667L160.333 46.6667M18 47L19 48L18 47M37.3333 47.6667L37.3333 48L37.6667 48.3333L37.6667 48L37.3333 47.6667M122 47L123 48L122 47M169 47L170 48L169 47M19 48L20 49L19 48M64 48L64 56L64.7222 55.2222L64.75 54.6944L64.9444 53.8889L65 52L64.9722 51.0278L64.9444 50.1111L64.75 49.3056L64.7222 48.7778L64 48M107 48L108 49L107 48M121 48L122 49L121 48M168 48L169 49L168 48M205.333 48.6667L205.333 49L205.667 49.3333L205.667 49L205.333 48.6667M20 49L21 50L20 49M167 49L168 50L167 49M229 49L230 50L229 49M120 50L121 51L120 50M166 50L167 51L166 50M228 50L229 51L228 50M38 51L39 52L38 51M108 51L108 55L108.722 54.2222L108.722 53.7222L108.889 53L108.722 51.7778L108 51M119 52L120 53L119 52M160.333 52.6667L160.333 53L160.667 53.3333L160.667 52.6667L160.333 52.6667M165 52L166 53L165 52M204.333 52.6667L204.333 53L204.667 53.3333L204.667 53L204.333 52.6667M23 53L24 54L23 53z"/>
<path style="fill:#fdf9f8; stroke:none;" d="M134.083 53.5278L133.222 53.9444L132.417 54.5L131.111 56.0833L130.639 57.0278L130.306 58L129.944 60L129.611 62L129.389 63L129.167 65L129.389 67L129.611 68L129.917 70L130.083 72L130.389 74L130.806 76L131.194 78L131.417 79L132.028 81L132.417 81.9722L133.5 83.75L135.083 85.0556L137 85.6389L138 85.5833L139.889 84.6667L140.694 83.8889L141.361 82.9722L141.889 82L142.583 80L142.778 79L142.972 77L143 76L143 74L143 72L143 71L143 70L142.917 68L142.611 66L142.389 65L142.056 63L141.944 62L141.528 60L141.139 59L140.722 58L139.528 56.0278L137.917 54.3333L136.972 53.75L135.028 53.3611L134.083 53.5278z"/>
<path style="fill:#feba08; stroke:none;" d="M226 53L227 54L226 53M39.3333 54.6667L39.3333 55L39.6667 55.3333L39.6667 55L39.3333 54.6667M118 54L119 55L118 54M163 55L164 56L163 55M135 56L136 57L135 56M159 56L160 57L159 56M203.333 56.6667L203.333 57L203.667 57.3333L203.667 57L203.333 56.6667M83 57L83 68L83.7222 67.2222L83.75 66.6944L83.9444 65.8889L83.9722 64.9722L84 64L84 62L83.9722 60.0278L83.9444 59.1111L83.75 58.3056L83.7222 57.7778L83 57z"/>
<path style="fill:#d92f14; stroke:none;" d="M134 57L133.417 59.0556L133.222 60.0556L133.083 61L133 63L133 64L133 65L133 67L133 70L133 71L133 72L133.083 74L133.389 76L133.639 77L133.889 78L134.583 79.9444L135.333 81.5L136 83L138 83L138.972 81.5L139.556 79.9444L139.917 78L140 76L140 75L140 74L140 71L140 69L140 68L139.917 66L139.583 64L139.306 63L138.611 61L138.194 60.0556L137.806 59.0556L137.5 58.5L137 57L134 57z"/>
<path style="fill:#fdf9f8; stroke:none;" d="M181 57.5278L179.028 58.5L178.083 59.25L177.222 60.0833L176.417 61.0278L175.083 63L174.083 65L173.722 66L173.417 67L173 69L172.611 71L172.389 72L172.083 74L172.028 75L171.917 77L171.611 79L171.389 80L171.083 82L171.028 83L171 85L171 86L171.028 88L171.083 89L171.389 91L171.778 93L171.917 94L172.083 96L172.222 97L172.639 99L172.861 100L173.472 102L174.417 103.972L175.694 105.75L176.417 106.5L178.083 107.5L180 107.833L182 107.5L183.889 106.5L185.278 104.917L185.889 103L185.972 102L186 101L186 100L186 97L186 95L186 94L186.028 92L186.083 91L186.389 89L186.611 88L186.917 86L186.972 85L187 83L187 82L187 79L187 78L187.028 76L187.083 75L187.389 73L187.611 72L187.917 70L187.972 69L188.083 67L188.222 66L188.583 64L188.694 63L188.667 62L188.056 60.1111L187.5 59.3056L185.917 58.1111L184.972 57.7222L184 57.4444L183 57.3056L181 57.5278z"/>
<path style="fill:#feba08; stroke:none;" d="M40 58L41 59L40 58M59.6667 58.3333L60 58.6667L60.3333 58.6667L60.3333 58.3333L59.6667 58.3333M117 58L118 59L117 58M133 58L134 59L133 58M137 58L138 59L137 58M27 59L28 60L27 59M156 59L157 60L156 59M53 60L54 61L53 60M86 60L86 63L86.6944 62.25L86.6944 61.8056L86.6944 60.75L86 60M132 60L132 73L132.722 72.2222L132.75 71.6944L132.944 70.8889L132.972 69.9722L133 69L133 68L133 66L133 64L132.972 63.0278L132.944 62.1111L132.75 61.3056L132.722 60.7778L132 60M138 60L139 61L138 60M161 60L162 61L161 60M178 64L179.5 63.25L180.056 62.8056L181.944 61.6944L182.5 61.3611L184 61L183.222 60.3056L181.889 60.3889L180.111 61.2778L178.778 62.5278L178 64M28 61L29 62L28 61M51 61L52 62L51 61z"/>
<path style="fill:#d92f14; stroke:none;" d="M178 105L182 105L183 104L183.028 101.944L183.083 100.944L183.389 99L183.611 98L183.917 96L184 94L184 93L184 90L184 81L184 79L184 78L184.028 76L184.083 75L184.389 73L184.611 72L184.917 70L184.972 69L185.028 67L185.083 66L185.417 64.0556L186 62L183.944 61.2778L182.944 61.1667L181.028 61.7222L179.25 63.1111L178.472 64.0278L177.278 66L176.444 68L176.167 69L175.639 71L175.389 72L175.083 74L175.028 75L174.917 77L174.778 78L174.389 80L174.222 81L174.083 82L174 84L174 86L174 88L174.083 90L174.222 91L174.389 92L174.778 94L174.917 95L175.083 97L175.417 99L176.028 101L176.361 101.944L176.833 102.944L177.028 103.5L178 105z"/>
<path style="fill:#feba08; stroke:none;" d="M185 61L186 62L185 61M202 61L202 64L202.694 63.25L202.694 62.1944L202.694 61.75L202 61M222 61L223 62L222 61M41.3333 62.6667L41.3333 63.3333L41.6667 63.3333L41.6667 63L41.3333 62.6667M48 62L49 63L48 62M106.333 62.6667L106.333 63.3333L106.667 63.3333L106.667 62.6667L106.333 62.6667M116 62L116 75L116.722 74.2222L116.75 73.6944L116.944 72.8889L116.972 71.9722L117 71L117 70L117 68L117 66L116.972 65.0278L116.944 64.1111L116.75 63.3056L116.722 62.7778L116 62M139.333 62.6667L139.333 63.3333L139.667 63.3333L139.667 62.6667L139.333 62.6667M155.333 62.6667L155.333 63L155.667 63.3333L155.667 63L155.333 62.6667M29 63L30 64L29 63M59 63L60 64L59 63z"/>
<path style="fill:#fdf9f8; stroke:none;" d="M60 63L58.5 63.75L57.9444 63.8333L56 64.4444L54 65.1944L53 65.6111L51 66.3889L49 67.25L48 67.7778L47 68.2222L46.0556 68.75L45.0556 69.1667L44.5 69.5L43 70L43.25 71.5L43.6111 73.0556L43.9167 75L43.9722 76L44.0833 78L44.3889 80L44.6111 81L44.9167 83L44.9722 84L45.0833 86L45.3889 88L45.6111 89L45.9167 91L45.9722 92L46 93L46 95L46 101L46 120L48.0556 120.611L49.0556 120.861L50 121.139L52 121.611L53 121.778L54 121.944L56 122.222L58 122.611L59.9444 122.917L62 123L62 82L62 76L62 74L62 73L61.9167 71L61.6111 69L61.3889 68L61.0556 66.0278L60.9722 65.1111L60.75 64.3056L60.7222 63.7778L60 63z"/>
<path style="fill:#feba08; stroke:none;" d="M61 63L61 69L61.7222 68.2222L61.75 67.6944L61.9444 66.8889L61.9444 65.1111L61.75 64.3056L61.7222 63.7778L61 63M87 63L88 64L87 63M160 63L161 64L160 63M185 63L185 66L185.694 65.25L185.694 64.1944L185.694 63.75L185 63M91 64L92 65L91 64M221 64L222 65L221 64M43 65L44 66L43 65M53 65L54 66L53 65M94 65L95 66L94 65M177 65L178 66L177 65M30 66L31 67L30 66M50 66L51 67L50 66M96 66L97 67L96 66M105.333 66.6667L105.333 67.3333L105.667 67.3333L105.667 66.6667L105.333 66.6667M48 67L49 68L48 67M99 67L100 68L99 67M159.333 67.6667L159.333 68L159.667 68.3333L159.667 68L159.333 67.6667M176 67L177 68L176 67M201.333 67.6667L201.333 68L201.667 68.3333L201.667 67.6667L201.333 67.6667M46 68L47 69L46 68M101 68L102 69L101 68M220 68L221 69L220 68M31 69L32 70L31 69M44 69L45 70L44 69M91 69L92 70L91 69M103 69L104 70L103 69M94.6667 70.3333L95 70.6667L95.3333 70.6667L95 70.3333L94.6667 70.3333M175.333 70.6667L175.333 71.3333L175.667 71.3333L175.667 70.6667L175.333 70.6667M97 71L98 72L97 71M32 72L33 73L32 72M43.3333 72.6667L43.3333 73.3333L43.6667 73.3333L43.6667 73L43.3333 72.6667M65 72L65 80L65.7222 79.2222L65.75 78.6944L65.9444 77.8889L65.9722 76.9722L66 76L65.9444 74.1111L65.75 73.3056L65.7222 72.7778L65 72M158 72L158 75L158.694 74.25L158.694 73.1944L158.694 72.75L158 72M184 72L184 77L184.722 76.2222L184.75 75.6944L184.917 74.0833L184.75 73.3056L184.722 72.7778L184 72M219 72L219 76L219.722 75.2222L219.889 74L219.722 73.2778L219.722 72.7778L219 72M155 75L155 78L155.694 77.25L155.694 76.1944L155.694 75.75L155 75M174 75L174 80L174.722 79.2222L174.75 78.6944L174.917 77.0833L174.75 76.3056L174.722 75.7778L174 75M200.333 75.6667L200.333 76.3333L200.667 76.3333L200.667 76L200.333 75.6667M33.3333 76.6667L33.3333 77.3333L33.6667 77.3333L33.6667 77L33.3333 76.6667M133 76L134 77L133 76M102 77L103 78L102 77M117 77L117 80L117.694 79.25L117.694 78.1944L117.694 77.75L117 77M44.3333 80.6667L44.3333 81L44.6667 81.3333L44.6667 80.6667L44.3333 80.6667M139 80L140 81L139 80M135 81L136 82L135 81M154.333 81.6667L154.333 82L154.667 82.3333L154.667 81.6667L154.333 81.6667M138 82L139 83L138 82M34.3333 83.6667L34.3333 84.3333L34.6667 84.3333L34.6667 84L34.3333 83.6667M118 83L119 84L118 83M199 83L199 88L199.722 87.2222L199.75 86.6944L199.917 85.0833L199.75 84.3056L199.722 83.7778L199 83M153 85L154 86L153 85M62 86L62 120L62.7222 119.222L62.75 118.694L62.9444 117.889L62.9722 116.972L63 115L63 114L63 111L63 94L63 92L63 91L62.9722 89.0278L62.9444 88.1111L62.75 87.3056L62.7222 86.7778L62 86M119 86L120 87L119 86M45 88L45 91L45.6944 90.25L45.6944 89.1944L45.6944 88.75L45 88M102.333 88.6667L102.333 89.3333L102.667 89.3333L102.667 88.6667L102.333 88.6667M120 88L121 89L120 88M70 89L71 90L70 89M82 90L82.7222 90.7222L83.25 90.75L85 91L84.2778 90.2778L83.75 90.25L82 90M121 90L122 91L121 90M85 91L85 101L85.7222 100.222L85.75 99.6944L85.9444 98.8889L85.9722 97.9722L86 96L85.9722 94.0278L85.9444 93.1111L85.75 92.3056L85.7222 91.7778L85 91M150 91L151 92L150 91M174 92L174 96L174.722 95.2222L174.722 94.7222L174.889 94L174.722 92.7778L174 92M122 93L123 94L122 93M219 94L219 99L219.722 98.2222L219.75 97.6944L219.917 96.9167L219.75 95.3056L219.722 94.7778L219 94M66 95L66.7778 95.7222L67.3056 95.75L68.1111 95.9444L68.9722 95.9722L69.9444 96L72 96L71.2222 95.2778L70.6944 95.25L69.8889 95.0556L69.0278 95.0278L68.0556 95L66 95M76 95L76.7778 95.7222L77.3056 95.75L78.1111 95.9444L78.9722 95.9722L79.9444 96L82 96L81.2222 95.2778L80.6944 95.25L79.8889 95.0556L79.0278 95.0278L78.0556 95L76 95M82 96L82 101L82.7222 100.222L82.75 99.6944L82.9167 98.0833L82.75 97.3056L82.7222 96.7778L82 96M120 96L121 97L120 96M158 97L158 100L158.694 99.25L158.694 98.1944L158.694 97.75L158 97M34 98L34 104L34.7222 103.222L34.75 102.694L34.9444 101.889L34.9444 100.111L34.75 99.3056L34.7222 98.7778L34 98M104 98L105 99L104 98M111 98L112 99L111 98M141 98L142 99L141 98M183 98L183 103L183.722 102.222L183.75 101.694L183.917 100.083L183.75 99.3056L183.722 98.7778L183 98M113 99L114 100L113 99M118 99L119 100L118 99M175 99L176 100L175 99M104 101L103.028 102.5L102.861 103.056L102.417 104.056L102.167 105L101.639 107L101.222 109L101.111 110L101.111 111L101.472 113L101.861 113.972L102.278 114.917L103.472 116.5L105.083 117.5L107 117.889L108 117.889L109.917 117.5L111.528 116.5L112.139 115.75L113.139 113.972L113.528 113L113.917 111L114 109L114 108L113.917 106L113.556 104.056L112.972 102.5L112 101L104 101M115 101L116 102L115 101M138.667 102.333L139 102.667L139.333 102.667L139 102.333L138.667 102.333M176 102L177 103L176 102M146 103L147 104L146 103M159 103L160 104L159 103M116 104L116 112L116.722 111.222L116.778 110.694L117.194 108.972L117.611 107.056L117.778 106.056L117.917 105.5L118 104L116 104M149 104L150 105L149 104M151 105L152 106L151 105M199 105L200 106L199 105M160 107L161 108L160 107M201 107L201 111L201.722 110.222L201.722 109.722L201.889 109L201.722 107.778L201 107M220.333 107.667L220.333 108.333L220.667 108.333L220.667 107.667L220.333 107.667M118 109L119 110L118 109M161 110L162 111L161 110M119 111L120 112L119 111M33 112L33 115L33.6944 114.25L33.6944 113.194L33.6944 112.75L33 112M157 112L158 113L157 112M162 112L163 113L162 112M163 114L164 115L163 114M201 114L202 115L201 114M221.333 114.667L221.333 115.333L221.667 115.333L221.667 114.667L221.333 114.667M115 115L116 116L115 115M158 115L159 116L158 115M124 116L125 117L124 116M200 116L201 117L200 116M66 117L67 118L66 117M113 118L114 119L113 118M128 118L129 119L128 118M103 119L104 120L103 119M132 119L133 120L132 119M186 119L187 120L186 119M197 119L198 120L197 119M46.6667 120.333L46.6667 120.667L47.3333 120.667L47.3333 120.333L46.6667 120.333M106 120L106.778 120.722L107.25 120.75L108.056 120.944L110 121L109.222 120.278L108.75 120.25L107.944 120.056L106 120M169 120L170 121L169 120M190 120L191 121L190 120M195 120L196 121L195 120M32.3333 121.667L32.3333 122.333L32.6667 122.333L32.6667 121.667L32.3333 121.667M51 121L52 122L51 121M68 121L69 122L68 121M171 121L172 122L171 121M183 121L184 122L183 121M56.6667 122.333L56.6667 122.667L57.3333 122.667L57 122.333L56.6667 122.333M69 122L70 123L69 122M89 122L89.7222 122.722L90.25 122.75L92 123L91.2778 122.278L90.75 122.25L89 122M143 122L144 123L143 122M180 122L181 123L180 122M222.333 122.667L222.333 123L222.667 123.333L222.667 123L222.333 122.667M71 123L72 124L71 123M80 123L80.7778 123.722L81.3056 123.75L82.0556 123.944L82.9722 123.972L85 124L84.2222 123.278L83.6944 123.25L82.9444 123.056L82.0278 123.028L80 123M144 124L144 130L144.722 129.222L144.75 128.694L144.944 127.889L144.944 126.111L144.75 125.306L144.722 124.778L144 124M223.333 128.667L223.333 129.333L223.667 129.333L223.667 129L223.333 128.667M31 129L31 132L31.6944 131.25L31.6944 130.194L31.6944 129.75L31 129M159 129L160 130L159 129M121 130L122 131L121 130M120 131L121 132L120 131M136 131L137 132L136 131M119 132L120 133L119 132M158 133L159 134L158 133M135 134L136 135L135 134M224.333 134.667L224.333 135L224.667 135.333L224.667 135L224.333 134.667M32 145L32.6667 146.083L33.3889 147.278L33.6944 148.083L33.9167 149.028L34.2222 151L34.6111 153L34.9167 154.944L35 157L36.5 156.889L37.0556 156.694L38.0556 156.389L40 155.611L42 155.194L42.9444 155.25L43.9444 155.417L46 156L46 147L47.5 146.75L49.0556 146.361L50 146.139L51 145.861L52 145.639L53 145.389L55 145.083L57 144.917L58 144.778L60 144.389L61.9444 144.083L64 144L64 156L65.1389 155.222L65.3611 154.694L65.8056 153.889L66.3889 152L66.7222 151L67.0833 150L68.0833 148.028L68.7222 147.083L69.4167 146.222L71.0833 144.722L73 143.639L74 143.306L75 143.111L77 143L79 143.083L81 143.389L82 143.611L84 143.944L85 144.056L87 144.389L88 144.611L90 144.917L91 144.972L93 145.083L95 145.472L96 145.861L97 146.278L97.9444 146.806L99.5 147.778L101 149L103 149L104.5 147.861L106.056 147.278L107 147.111L108 147.028L108.944 147L109.944 147L112 147L112.083 145.5L112.472 143.944L113.278 142L114.389 140L115.583 138.056L116.111 137.056L116.472 136.5L117 135L112 135L110 135L109 135.028L108 135.083L106 135.389L105 135.611L103 135.917L102 135.972L101 136L99 136.028L98 136.083L96 136.389L95 136.611L93 136.917L92 136.972L90 137L88 137L87 137.028L86 137.083L84 137.389L83 137.611L81 137.917L80 137.972L79 138L77 138.028L76 138.083L74 138.389L73 138.611L71 138.917L69 139.083L68 139.222L66 139.611L64 139.917L62 140.083L61 140.222L59 140.611L57 140.944L56 141.056L54 141.389L53 141.611L51 141.944L50 142.056L48 142.389L47 142.611L45 142.944L44 143.056L42 143.389L41 143.639L39 144.139L38 144.361L37 144.611L35.0556 144.917L33.5 145L32 145M138 135L138 140L139.222 139.639L139.583 139.278L140.722 137.944L141.167 137.028L141.5 136.5L142 135L138 135M30.3333 136.667L30.3333 137.333L30.6667 137.333L30.6667 137L30.3333 136.667M161 137L161 149L162.5 149.083L163.056 149.222L164 149.389L165.5 149.75L167 150L168.5 148.75L170.056 147.639L172 146.389L173 145.833L174 145.278L176 144.5L177 144.333L179 144.417L180 144.639L182 145.167L183 145.444L185 146.25L186 146.75L187.944 147.528L190 148L192.056 146.694L193.056 146.361L195 146.5L197 147.278L198.972 148.472L199.917 149.25L201.528 151.028L202.722 152.944L203.167 153.944L203.5 154.5L204 156L222 156L222.083 154.5L222.472 152.944L223.194 151.056L223.5 150.5L224 149L222.5 148.917L221.944 148.778L220.944 148.611L220 148.361L218 147.861L217 147.639L215 147.139L214 146.861L213 146.639L211 146.139L210 145.861L209 145.639L208 145.361L207 145.139L206 144.861L205 144.639L203 144.139L202 143.861L200 143.389L199 143.194L197 142.806L196 142.611L194 142.194L192 141.806L191 141.611L189 141.139L188 140.861L187 140.639L186 140.389L184 140.083L183 140.028L181 139.917L179 139.611L178 139.361L177 139.139L175 138.639L174 138.389L172 138.083L170 138L168 137.917L166 137.611L164.056 137.222L162.5 137.028L161 137M225 140L226 141L225 140M29.3333 142.667L29.3333 143.333L29.6667 143.333L29.6667 142.667L29.3333 142.667M226 145L227 146L226 145z"/>
</svg>
