<?xml version="1.0" encoding="UTF-8" standalone="no"?>
<svg
   xmlns:dc="http://purl.org/dc/elements/1.1/"
   xmlns:cc="http://creativecommons.org/ns#"
   xmlns:rdf="http://www.w3.org/1999/02/22-rdf-syntax-ns#"
   xmlns:svg="http://www.w3.org/2000/svg"
   xmlns="http://www.w3.org/2000/svg"
   xmlns:sodipodi="http://sodipodi.sourceforge.net/DTD/sodipodi-0.dtd"
   xmlns:inkscape="http://www.inkscape.org/namespaces/inkscape"
   width="750"
   height="750"
   version="1.1"
   id="svg12"
   sodipodi:docname="library_genesis.svg"
   inkscape:version="0.92.4 5da689c313, 2019-01-14">
  <metadata
     id="metadata18">
    <rdf:RDF>
      <cc:Work
         rdf:about="">
        <dc:format>image/svg+xml</dc:format>
        <dc:type
           rdf:resource="http://purl.org/dc/dcmitype/StillImage" />
      </cc:Work>
    </rdf:RDF>
  </metadata>
  <defs
     id="defs16" />
  <sodipodi:namedview
     pagecolor="#ffffff"
     bordercolor="#666666"
     borderopacity="1"
     objecttolerance="10"
     gridtolerance="10"
     guidetolerance="10"
     inkscape:pageopacity="0"
     inkscape:pageshadow="2"
     inkscape:window-width="1362"
     inkscape:window-height="729"
     id="namedview14"
     showgrid="false"
     inkscape:zoom="0.31466667"
     inkscape:cx="-11.122881"
     inkscape:cy="375"
     inkscape:window-x="0"
     inkscape:window-y="18"
     inkscape:window-maximized="0"
     inkscape:current-layer="svg12" />
  <path
     style="fill:none;stroke:none"
     d="M0 0L0 500C5.56197 498.044 6.20299 486.456 8.72145 481.285C13.2376 472.014 21.9285 465.852 30.1304 459.915C45.685 448.656 68.2564 446.262 87 449.325C93.2032 450.338 98.8785 453.484 105 454.617C110.131 455.568 117.495 449.297 121.566 452.622C124.492 455.011 123.994 459.651 124 463L124 485C124 488.291 124.747 492.766 123.397 495.852C121.827 499.439 117.094 499.321 114.742 496.566C112.757 494.241 113.026 490.849 113 488L110 488C109.451 481.346 106.322 478.161 102.37 473.075C90.1089 457.294 66.4799 450.949 51.3904 467.428C38.8633 481.109 38 499.687 38 517C38 529.212 38.6724 541.621 43.6798 553C52.3197 572.633 70.7671 583.013 90.9954 572.623C100.143 567.924 98.0034 557.762 98 549C97.9983 544.679 98.437 539.711 95.4861 536.148C92.3044 532.307 84.7285 531.301 80 531L79 522L127 522C131.372 522 141.307 520.3 144.248 524.509C145.732 526.633 143.811 528.521 142.106 529.656C137.473 532.741 131.65 532.47 130.279 539.004C128.862 545.752 128.738 554.106 129.039 561C129.166 563.897 130.641 567.934 128.958 570.571C127.699 572.543 124.99 573.244 123.039 574.296C117.124 577.482 111.662 580.171 105.015 581.438C86.2033 585.025 69.1327 588.293 50 584.624C39.2604 582.565 30.4146 577.47 22.1736 570.552C18.9608 567.856 15.2378 565.445 12.9545 561.833C10.2401 557.54 6.49848 552.814 4.81481 548C3.13492 543.197 5.07434 538.798 0 536L0 750L750 750L750 565C746.456 566.854 744.727 570.116 741.812 572.8C736.52 577.672 729.798 581.933 722.911 584.164C713.314 587.274 699.726 586.903 690 584.529C686.573 583.693 683.558 581.615 680 581.228C675.974 580.791 672.871 583.389 669.019 583.512C665.562 583.623 664.329 581.038 664.059 577.995C663.507 571.779 663.917 565.24 664.004 559C664.036 556.674 663.828 553.386 665.742 551.658C670.479 547.382 675.232 557.297 677.13 560.004C684.232 570.137 693.331 577.132 706 576.996C711.95 576.932 717.641 574.932 720.143 568.961C723.55 560.827 716.231 555.896 709.714 553.159C701.239 549.599 691.196 549.286 683.089 544.651C677.987 541.734 672.259 537.235 669.433 531.996C663.492 520.982 666.597 503.476 677.005 496.545C688.792 488.695 705.001 486.744 718.911 489.26C721.708 489.766 724.178 491.263 727.014 491.695C731.27 492.344 738.039 487.656 741.297 490.619C746.073 494.962 743.624 505.291 744.286 511C744.571 513.461 745.442 516.418 743.968 518.682C742.267 521.297 738.708 520.968 736 521C733.942 509.454 724.184 500.453 713 497.75C706.155 496.096 695.807 498.592 694.782 507.035C694.36 510.509 697.186 513.724 698 517C701.862 517.515 704.517 519.769 708.17 520.762C716.944 523.146 727.645 525.391 735.486 530.256C741.051 533.71 744.304 542.05 750 544L750 0L0 0z"
     id="path2" />
  <path
     style="fill:#a4181a; stroke:none;"
     d="M157.424 160.819C149.073 164.295 142.97 175.797 146.585 184.625C150.182 193.409 163.179 197.333 171.576 194.236C181.091 190.727 186.921 179.163 181.772 169.615C178.401 163.365 172.643 161.08 166 160.286C163.19 159.949 160.098 159.706 157.424 160.819M228 161.424C221.027 162.34 214.016 161.873 207 162.005C204.356 162.054 200.666 162.037 199.712 165.147C197.795 171.4 206.429 172.152 209.66 174.728C213.486 177.778 214.848 183.354 214.985 188C215.855 217.61 215.002 247.376 215 277C215 284.38 213.962 291.614 214.001 299C214.014 301.439 213.564 305.24 215.738 306.968C220.395 310.668 228.193 300.399 233 299.759C237.112 299.212 241.19 302.422 245 303.521C254.699 306.318 264.821 308.305 274.985 306.696C292.48 303.927 307.777 292.595 314.482 276C316.753 270.38 316 263.939 316 258C316 252.93 316.763 247.149 315.726 242.17C313.42 231.104 305.99 219.357 295.961 213.98C286.949 209.148 273.031 208.141 263 210.394C259.571 211.164 250.709 218.91 247.703 216.264C244.595 213.528 246 205.682 246 202L246 174C246 170.746 246.974 165.417 244.397 162.893C240.896 159.466 232.379 160.849 228 161.424M11 173C11.1152 182.716 17.3721 180.223 23.811 184.843C26.6657 186.892 28.6834 190.804 29.5401 194.17C31.6134 202.315 30 212.616 30 221L30 275C29.9902 281.104 29.6413 288.751 23.6605 292.239C20.7243 293.952 17.1067 294.028 14.1481 295.649C11.8464 296.91 10.1738 299.98 12.0324 302.397C13.5501 304.372 16.8194 303.984 19 303.999C25.3327 304.043 31.6672 304 38 304L106 304L123 303.999C125.513 303.982 128.477 304.209 130.486 302.397C133.49 299.687 132.994 294.64 133 291C133.015 281.615 133.999 272.353 134 263C125.57 260.074 123.982 266.28 120.406 272.91C116.101 280.892 109 292.895 99 293.895C91.0633 294.689 74.0841 296.659 67.9012 290.881C60.9862 284.42 63 274.639 63 266L63 214C63 206.731 61.36 197.15 63.4992 190.171C65.09 184.98 70.1513 182.706 74.9992 181.444C76.96 180.933 79.5785 180.97 80.9722 179.259C82.3072 177.62 81.9767 174.955 82 173L11 173M467 209.424C455.965 210.874 438.43 213.384 432.988 225.015C425.739 240.51 447.384 248.927 458.829 242.697C463.477 240.167 465.296 236.099 464.829 231C464.428 226.625 462.458 220.864 467.218 218.029C472.98 214.595 483.198 221.233 484.682 227.015C486.115 232.6 485.977 242.562 480.811 246.142C477.106 248.71 471.504 248.9 467.285 250.42C454.43 255.052 434.296 257.815 427.938 272.039C426.577 275.083 426.999 278.752 427 282C427.008 303.355 447.884 309.892 466 305.625C469.448 304.813 473.375 303.436 476.424 301.622C478.875 300.164 481.805 297.157 484.871 297.302C488.212 297.461 490.72 302.594 494.005 303.87C505.324 308.27 516.524 307.571 527.867 303.443C530.549 302.467 532.744 299.311 530.932 296.513C529.04 293.591 523.818 293.842 521.094 291.722C514.276 286.415 515.964 277.693 516.001 270C516.061 257.535 519.836 242.531 516.53 230.286C510.94 209.581 485.086 207.049 467 209.424M136 213C136.024 214.982 135.708 217.589 137.027 219.264C141.292 224.681 149.892 223.107 150.891 232.001C152.097 242.736 151 254.195 151 265C151 272.367 152.11 280.744 150.772 287.996C150.221 290.983 148.547 293.152 145.957 294.701C143.41 296.225 138.023 297.434 139.662 301.687C141.186 305.641 150.695 304 154 304C168.625 304 183.488 304.834 198 303C196.583 294.288 186.326 295.506 184.318 287.957C182.343 280.533 184 270.671 184 263L184 211C168.005 208.979 152.1 213 136 213M327 221C331.956 222.078 337.805 224.353 340.142 229.3C342.409 234.099 341 241.799 341 247C341 260.197 342.867 274.95 340.853 287.985C339.862 294.397 334.461 294.296 330.607 297.93C329.177 299.278 328.996 301.524 330.608 302.822C333.621 305.248 340.384 304 344 304L377 304C380.393 304 388.674 305.521 389.623 300.871C390.898 294.628 376.878 294.311 374.228 288.812C372.26 284.727 373 279.397 373 275L373 247C373 242.289 372.191 236.975 375.318 233.043C377.165 230.721 381.341 226.814 384.656 228.241C389.097 230.154 387.8 238.191 390.483 241.815C398.421 252.535 414.978 246.709 419.006 236C422.652 226.306 418.99 214.696 408.91 210.878C405.529 209.597 401.549 209.978 398 210.001C390.757 210.047 380.235 213.408 378 221L372 221C372 218.194 372.905 213.164 370.397 211.179C367.667 209.019 363.083 210.351 360 210.714C353.16 211.522 345.867 212.817 339 212.985C336.047 213.058 331.096 212.064 328.603 214.028C326.627 215.585 327.026 218.788 327 221M586 222C585.313 218.3 585.01 214.763 585 211C569.914 211 555.086 213 540 213L540 221C560.924 226.231 555 252.355 555 269C555 274.757 556.631 283.501 554.397 288.871C551.47 295.903 541.999 295.222 541 304L587 304C590.445 304 600.723 305.75 602.338 301.701C603.189 299.567 601.71 297.955 599.852 297.225C594.523 295.13 588.621 294.69 585.858 288.714C583.509 283.633 585 275.496 585 270C585 254.477 580.254 232.987 599 227C600.858 231.85 600.111 238.117 603.863 241.91C612.941 251.086 627.983 246.969 633.146 235.576C634.917 231.668 634 226.198 634 222C643.95 222.324 646.592 232.205 650.17 240C652.454 244.975 655.761 249.197 658.278 254C664.264 265.424 669.399 277.477 675.382 289C678.362 294.739 684.991 305.592 681.153 311.83C679.147 315.09 674.174 322.681 669.971 322.704C665.873 322.728 662.898 318.391 659.572 316.533C654.214 313.541 641.775 313.33 638.279 319.059C632.003 329.343 638.547 342.51 650 344.725C664.694 347.567 673.807 337.858 682.561 327.919C691.751 317.485 696.545 304.592 701.846 292C703.595 287.845 706.336 284.144 708.174 280C712.898 269.345 716.695 258.486 721.872 247.996C727.299 237 730.879 226.48 741.775 220.165C743.703 219.048 745.391 216.886 743.928 214.648C741.972 211.656 737.068 212.017 734 212.001C724.6 211.952 715.325 211.821 706 213C706.12 215.17 706.065 217.499 707.742 219.148C710.85 222.205 715.999 222.022 717.454 227.005C718.635 231.046 715.192 235.523 713.644 239C709.648 247.968 708.142 262.899 698 267C694.38 257.054 689.231 247.582 684.777 238C683.065 234.317 678.957 230.074 678.566 225.98C677.96 219.62 693.748 220.922 688.802 213.419C687.137 210.893 683.66 211.041 681 211.004C674.669 210.915 668.331 211 662 211C653.391 211 644.589 210.468 636 211.054C633.325 211.237 630.748 212.494 628.089 212.481C625.618 212.468 623.352 210.977 620.961 210.478C616.518 209.551 610.41 209.352 606 210.495C598.175 212.522 593.384 219.164 586 222z"
     id="path4" />
  <path
     style="fill:#fefcfc; stroke:none;"
     d="M255.015 224.702C251.247 225.99 247.69 229.161 246.569 233.04C245.401 237.081 246 241.839 246 246L246 270C246 275.158 245.199 281.131 247.228 286C250.402 293.614 257.399 300.121 265.999 297.301C283.292 291.631 282 271.362 282 257C282 251.024 282.561 244.627 280.14 239C276.09 229.582 265.763 221.027 255.015 224.702M466 291C471.472 290.996 478.171 290.766 482.181 286.352C487.904 280.053 485.421 263.657 484 256C469.852 257.526 457.403 268.999 461.317 283.946C462.05 286.744 464.605 288.562 466 291z"
     id="path6" />
  <path
     style="fill:#a4181a; stroke:none;"
     d="M618 439.61C614.648 440.453 610.983 441.975 608.468 444.394C595.077 457.275 610.198 477.604 626.714 473.544C630.632 472.581 634.813 470.966 637.517 467.891C648.912 454.935 633.204 435.788 618 439.61M0 500C0 510.59 -1.52078 522.458 0.147377 532.911C0.631886 535.946 2.9779 538.059 3.68673 541.015C4.41676 544.059 3.94916 547.023 5.21373 549.996C10.6008 562.662 23.1813 575.397 36 580.545C43.0497 583.376 49.6797 584.059 57 585.259C62.8303 586.216 67.9359 587.376 73.9606 586.946C76.7756 586.745 79.2583 585.455 82.0394 585.129C92.177 583.939 102.233 583.684 111.999 580.123C116.358 578.534 127.323 574.891 129.393 570.571C130.729 567.781 129.289 563.913 129.09 561C128.653 554.622 128.387 543.928 130.858 538.015C133.181 532.458 138.604 532.656 142.941 529.656C144.605 528.505 146.167 526.577 144.914 524.509C142.342 520.266 132.132 522 128 522L79 522C79.0636 525.078 79.4379 527.975 80 531C85.1315 531.625 92.1695 532.731 95.4861 537.059C98.5357 541.037 97.9997 546.285 98 551C98.0006 561.148 98.7174 569.018 88 573.536C82.693 575.773 75.8424 577.657 70.0394 576.856C57.6296 575.142 48.3573 562.629 43.6798 552C38.8262 540.971 38 528.848 38 517C38 499.841 39.2074 480.569 52.213 467.428C63.0937 456.434 79.7996 454.785 92.7106 463.584C96.7173 466.315 99.4536 470.223 102.37 474C106.057 478.776 109.145 481.814 110 488L113 488C113.008 490.695 112.563 494.22 114.179 496.566C116.055 499.29 121.754 500.018 123.397 496.682C124.824 493.783 124 489.141 124 486L124 462C123.995 458.875 124.601 454.05 121.566 452.032C116.949 448.963 111.054 455.291 106 454.578C99.8868 453.716 94.1611 450.331 88 449.325C82.8128 448.477 77.242 449 72 449C59.8304 449 47.1358 449.107 36.1698 455.324C26.5449 460.781 15.1006 469.052 9.6659 478.715C6.291 484.716 5.83977 496.588 0 500M250 559C247.871 558.337 245.37 557.117 243.088 557.446C237.988 558.182 233.788 565.294 229.572 568.057C225.855 570.493 218.417 571.862 214 571.443C206.067 570.691 197.908 567.68 193.384 560.829C191.662 558.221 190.961 555.167 189.501 552.424C187.079 547.874 184.572 538.486 190.228 535.028C193.572 532.983 199.245 534 203 534L233 534C237.03 534 245.745 535.666 248.142 531.427C250.238 527.72 248.301 521.029 247.91 517C247.494 512.72 245.762 508.489 243.254 505.004C240.151 500.692 236.328 497.095 231.91 494.129C225.169 489.603 213.976 488.039 206 488.001C191.651 487.932 178.119 490.607 167.21 500.669C148.922 517.538 148.299 550.507 162.546 569.985C165.718 574.322 170.225 576.608 174.715 579.272C190.522 588.651 215.962 589.009 231.996 579.803C239.837 575.302 248.937 568.605 250 559M304 501C303.998 498.107 304.651 493.857 302.397 491.603C300.326 489.533 296.659 490.005 294 490C287.182 489.986 280.752 491.185 274 491.83C270.483 492.166 262.454 490.429 260.032 493.603C258.118 496.113 259.963 499.521 262.148 501.077C264.439 502.709 267.166 503.24 269.275 505.225C275.785 511.353 274 520.895 274 529L274 554C274 558.122 274.692 563.012 273.486 566.999C271.837 572.455 259.192 575.145 260.89 580.811C262.193 585.161 269.641 584 273 584L305 584C309.045 583.998 314.828 584.561 316.839 580.035C317.813 577.841 316.382 576.173 314.655 574.981C310.452 572.077 306.486 570.262 304.703 565C303.444 561.285 304 556.864 304 553L304 531C304 526.335 303.361 521.249 305.649 517C309.366 510.097 318.23 502.202 326.83 505.232C343.43 511.08 338 538.477 338 552C338 557.007 338.936 563.132 337.566 567.985C336.008 573.503 323.686 574.969 326.623 581.683C328.3 585.518 336.677 584 340 584L382 584C381.978 581.592 382.289 578.593 380.821 576.51C379.279 574.322 376.34 574.071 374.209 572.722C371.217 570.828 369.566 567.435 369.133 564C367.095 547.863 370.204 531.205 368.285 515C367.527 508.596 367.814 502.278 362.736 497.39C356.842 491.716 350.514 491.288 343.17 489.545C337.688 488.244 333.639 488.197 328 489.146C318.619 490.725 312.949 499.233 304 501M487 532C486.973 522.177 485.154 510.534 478.766 502.669C470.81 492.873 459.9 489.967 448 488.83C428.347 486.952 409.663 492.114 397.453 508.514C390.757 517.507 390 526.261 390 537C390 552.512 394.057 568.301 408.001 577.49C428.005 590.673 459.379 588.599 477.829 574.229C481.062 571.712 485.369 567.832 486.481 563.718C487.403 560.311 484.681 556.252 480.869 556.778C476.316 557.406 472.612 563.674 469 566.2C461.634 571.35 452.537 572.401 444 570.323C434.13 567.921 426.605 556.58 424.63 546.985C423.887 543.38 423.314 538.314 426.434 535.603C430.25 532.287 439.275 534 444 534C457.879 534 473.683 536.155 487 532M500 584C504.485 583.87 508.614 581.487 512.985 581.528C518.073 581.575 523.772 584.955 529 585.7C544.25 587.873 559.803 585.472 572.711 577.194C585.466 569.015 587.852 548.6 578.138 537.209C569.714 527.331 556.883 525.029 545.17 521.546C540.912 520.279 537.47 517.605 533 517C531.989 513.867 529.131 511.517 529.253 507.995C529.607 497.764 543.568 495.651 550.961 498.85C555.123 500.652 559.375 504.739 562.787 507.714C566.418 510.879 568.202 518.412 573.194 519.663C575.563 520.256 577.848 519.239 578.552 516.852C579.297 514.324 578.41 511.538 578.17 509C577.7 504.045 579.486 497.005 577.142 492.483C574.455 487.298 570.052 490.616 566 491.271C563.62 491.655 561.302 490.754 559 490.285C538.752 486.165 505.975 486.284 500.518 512C497.55 525.985 506.756 540.705 519.286 546.502C523.43 548.419 528.609 548.808 533 550.14C540.592 552.442 555.27 555.362 554.54 566C553.597 579.732 533.082 578.422 525.005 573.336C520.572 570.544 514.4 565.235 511.509 560.826C509.037 557.055 508.731 552.232 503.718 550.583C498.427 548.843 498.026 554.293 498.001 558C497.941 566.625 498.424 575.513 500 584M750 544C744.845 541.071 742.114 534.471 736.996 530.785C729.455 525.352 717.902 523.088 709.089 520.762C705.047 519.694 702.35 517.292 698 517C697.487 513.386 694.428 509.77 695.478 506.09C697.764 498.069 707.116 496.276 714 498.309C724.731 501.477 732.934 510.356 736 521C738.42 520.991 742.261 521.566 743.972 519.397C745.52 517.435 744.867 514.25 744.576 512C743.871 506.549 746.27 493.693 741.297 490.032C737.955 487.571 734.212 491.182 730.911 491.687C725.239 492.554 718.944 489.003 713 489C705.198 488.996 696.554 487.953 689 490.21C683.072 491.981 675.713 495.408 671.754 500.301C664.692 509.027 664.603 528.336 672.215 536.696C681.974 547.414 695.203 548.103 707.911 552.796C713.995 555.043 723.336 560.078 720.142 567.985C715.048 580.598 698.067 578.273 689.036 571.856C685.342 569.232 682.29 565.484 679.44 562C676.546 558.462 674.461 552.598 669.921 550.863C666.966 549.733 664.832 551.036 664.228 554.059C663.043 559.993 664 566.959 664 573C664 575.619 663.408 579.257 664.603 581.682C667.089 586.723 678.265 580.587 683 582.268C700.104 588.343 721.694 588.166 736.999 577.43C741.63 574.181 747.344 569.187 749.415 563.714C751.511 558.174 750 549.88 750 544M604 502C605.052 505.256 607.627 507.576 608.467 511.005C610.068 517.539 609 525.307 609 532C609 542.752 610.2 554.293 608.87 564.961C608.463 568.226 606.754 571.169 603.87 572.854C600.872 574.607 593.884 575.687 596.427 580.867C598.724 585.545 606.79 584 611 584L643 584C649.054 584 654.141 584.733 656 578C652.019 575.133 645.596 573.79 642.742 569.811C639.919 565.875 641 559.569 641 555L641 519L641 500C640.995 497.409 641.486 493.828 639.397 491.858C637.058 489.653 632.95 490.015 630 490.001C621.88 489.961 614.065 491.358 606 491.91C602.789 492.13 598.139 491.12 595.322 493.028C588.081 497.931 600.774 501.607 604 502z"
     id="path8" />
  <path
     style="fill:#fefcfc; stroke:none;"
     d="M200.004 496.672C192.292 498.785 187.184 509.635 187.016 517C186.961 519.396 186.759 522.552 188.603 524.397C190.028 525.821 192.118 525.899 194.001 525.981C199.082 526.202 206.857 527.298 211.656 525.486C215.464 524.048 215.144 519.342 214.83 516C214.158 508.836 210.23 493.871 200.004 496.672M452 524L451 504C446.443 501.684 443.953 495.763 438.089 496.199C429.734 496.82 424.097 509.948 424.005 517C423.976 519.274 423.667 522.488 425.179 524.397C426.886 526.552 430.59 525.995 433 526C439.688 526.014 445.661 526.264 452 524z"
     id="path10" />
</svg>
