<?xml version="1.0" standalone="yes"?>
<svg xmlns="http://www.w3.org/2000/svg" width="185" height="97">
<path style="fill:#fefefe; stroke:none;" d="M0 0L0 97L185 97L185 0L0 0z"/>
<path style="fill:#9ca4a9; stroke:none;" d="M67 1C65.4518 4.73391 63.5582 6.177 60 8C63.0353 10.1531 65.5779 12.1399 68 15C69.6931 12.1988 71.6328 10.2273 74 8L67 1M100 5C97.2225 9.94472 94.3409 11.6934 90 15C95.2071 17.3743 98.0531 19.0584 99 25C103.536 21.5983 103.873 17.1607 110 15C105.457 11.9133 103.286 9.30044 100 5M134 16C132.67 18.5972 131.564 19.5909 129 21L135 27C136.877 24.867 138.5 23.3605 141 22C138.778 19.849 136.637 17.5892 134 16M27 32C25.5381 34.4331 24.712 35.1772 22 36L27 43C29.2489 40.6979 30.938 39.0872 34 38L27 32M107 32C110.163 33.3274 113.586 32.9996 117 33C116.176 36.0502 114.688 38.3278 113 41C122.002 38.8569 131.79 41 141 41C140.414 38.455 139.713 35.6127 137.387 34.0278C135.071 32.4506 131.644 33.0832 129 32.8302C121.627 32.1251 114.416 32 107 32M100.667 33.3333C100.222 33.7778 101.278 33.7222 101.333 33.6667C101.778 33.2222 100.722 33.2778 100.667 33.3333z"/>
<path style="fill:#1181c1; stroke:none;" d="M85 36C93.2471 40.3859 114.81 47.1424 117 33C106.044 33 95.8244 34.6249 85 36z"/>
<path style="fill:#9ca4a9; stroke:none;" d="M92 34C93.2483 34.6848 93.5484 34.7488 95 35C93.7517 34.3152 93.4516 34.2512 92 34z"/>
<path style="fill:#1181c1; stroke:none;" d="M138 34C139.194 36.8144 140.037 38.9419 140 42C154.201 42.1176 167.529 48.3229 181 52C171.449 40.4431 152.256 35.841 138 34z"/>
<path style="fill:#9ca4a9; stroke:none;" d="M141 34C142.248 34.6848 142.548 34.7488 144 35C142.752 34.3152 142.452 34.2512 141 34M87.6667 35.3333C87.2222 35.7778 88.2778 35.7222 88.3333 35.6667C88.7778 35.2222 87.7222 35.2778 87.6667 35.3333M146.667 35.3333C146.222 35.7778 147.278 35.7222 147.333 35.6667C147.778 35.2222 146.722 35.2778 146.667 35.3333M40 55L42 61C60.2419 51.4019 77.832 45.7465 98 42C92.8063 35.7598 84.1248 36.3589 77 38.4452C63.6958 42.341 52.1554 48.5305 40 55M151 36L152 37L151 36M154 37L155 38L154 37M157 38L158 39L157 38M160 39L161 40L160 39M163 40L164 41L163 40M101 41C102.248 41.6848 102.548 41.7488 104 42C102.752 41.3152 102.452 41.2512 101 41M165 41L166 42L165 41M145 42C146.248 42.6848 146.548 42.7488 148 43C146.752 42.3152 146.452 42.2512 145 42M167 42L168 43L167 42M149 43C150.248 43.6848 150.548 43.7488 152 44C150.752 43.3152 150.452 43.2512 149 43M169 43L170 44L169 43M155.667 44.3333C155.222 44.7778 156.278 44.7222 156.333 44.6667C156.778 44.2223 155.722 44.2778 155.667 44.3333M171 44L172 45L171 44M163 46L164 47L163 46M174 46L175 47L174 46M167 47L168 48L167 47M176 47L177 48L176 47M170 48L171 49L170 48M177 48L178 49L177 48M173 49L174 50L173 49M179 49L180 50L179 49M176 50L177 51L176 50M180 50L181 51L180 50M178 51L179 52L178 51M181 51C181.902 52.9225 182.076 52.9988 184 54C183.098 52.0775 182.924 52.0012 181 51M38 56L39 57L38 56z"/>
<path style="fill:#1181c1; stroke:none;" d="M4 91C9.94631 86.8113 14.5237 81.054 20 76.2894C27.1676 70.0532 35.1152 65.2173 43 60C38.2714 54.686 33.4948 59.6716 29 63.2106C19.4883 70.6998 9.46358 80.0317 4 91z"/>
<path style="fill:#9ca4a9; stroke:none;" d="M35 58L36 59L35 58M152 59C154.052 59.8742 155.747 59.9528 158 60C155.948 59.1258 154.253 59.0472 152 59M32 60L33 61L32 60z"/>
<path style="fill:#1181c1; stroke:none;" d="M51 60L51 76L54 76L54 69L63 69L63 76L66 76L66 60L63 60L63 67L54 67L54 60L51 60z"/>
<path style="fill:#9ca4a9; stroke:none;" d="M62 60L62 66L54 66C56.8897 67.2129 59.8741 66.9983 63 67C62.9813 64.4566 62.9845 62.3316 62 60M69 60L69 77L85 77C80.5286 75.1237 74.8166 76 70 76C70 70.9099 70.9822 64.7238 69 60z"/>
<path style="fill:#1181c1; stroke:none;" d="M70 60L70 76L85 76C85.3299 75.061 85.525 73.8204 86.1852 72.9877C91.1303 66.7497 94.2975 74.4868 99 76L93 60C86.0565 61.13 84.2621 69.1694 82 75C78.65 74.0096 75.486 74.0019 72 74L72 69L80 69L80 67L72 67L72 62L81 62L81 60L70 60z"/>
<path style="fill:#9ca4a9; stroke:none;" d="M88 60L89 61L88 60z"/>
<path style="fill:#1181c1; stroke:none;" d="M98 60C98.9046 63.3074 101.629 75.3642 106.001 75.3642C110.519 75.3642 113.687 63.384 115 60C109.378 61.9207 108.981 69.0271 105 73C104.318 68.4446 102.469 64.343 101 60L98 60z"/>
<path style="fill:#9ca4a9; stroke:none;" d="M116 60C116 63.8305 114.275 73.3359 117.603 75.9722C120.051 77.9107 125.073 77 128 77C124.568 75.5597 120.7 76 117 76C117 70.9098 117.982 64.7238 116 60z"/>
<path style="fill:#1181c1; stroke:none;" d="M117 60L117 76L128 76L128 74L119 74L119 69L127 69L127 67L119 67L119 62L128 62L128 60L117 60M131 60L131 76L134 76L134 64C137.181 68.6763 140.031 74.9909 146 76L146 60L144 60L144 72C139.459 67.8386 137.58 61.0639 131 60z"/>
<path style="fill:#9ca4a9; stroke:none;" d="M135 60L136 61L135 60M143 60C143 64.1134 142.956 67.9826 142 72C145.045 69.3395 144.478 63.5214 143 60M146 60L146 76C147.812 71.6811 147.812 64.3189 146 60z"/>
<path style="fill:#1181c1; stroke:none;" d="M150 74C152.233 76.5549 159.053 76.9105 158.534 71.956C158.144 68.2365 154.069 65.6538 153 62L159 62L159 60C156.505 60.0088 151.794 59.3246 150.662 62.3171C148.89 67.0025 160.635 74.3427 150 74z"/>
<path style="fill:#9ca4a9; stroke:none;" d="M31 61L32 62L31 61M40 61L41 62L40 61M101 61L102 62L101 61M111 61L112 62L111 61M114 61L115 62L114 61M72 62L72 67C72.8299 64.9695 72.8299 64.0305 72 62M87 62L88 63L87 62M90 62L91 63L90 62M93 62L94 63L93 62M98 62L99 63L98 62M119 62L119 67C119.83 64.9695 119.83 64.0305 119 62M136 62L137 63L136 62M149 62L149 65C149.696 63.4463 149.696 63.5537 149 62M37 63L38 64L37 63z"/>
<path style="fill:#fefefe; stroke:none;" d="M90 63L89 68L92 68C91.6137 65.8574 91.2549 64.7505 90 63z"/>
<path style="fill:#9ca4a9; stroke:none;" d="M110 63L111 64L110 63M113 63L114 64L113 63M137 63L138 64L137 63M27 64L28 65L27 64M35 64L36 65L35 64M86 64L87 65L86 64M89 64L90 65L89 64M91 64L92 65L91 64M94 64L95 65L94 64M99 64L100 65L99 64M102 64L103 65L102 64M134 64L135 65L134 64M26 65L27 66L26 65M34 65L35 66L34 65M109 65L110 66L109 65M138 65L139 66L138 65M153 65L154 66L153 65M32 66L33 67L32 66M85 66L86 67L85 66M88.3333 66.6667C88.2778 66.7222 88.2222 67.7778 88.6667 67.3333C88.7222 67.2778 88.7778 66.2222 88.3333 66.6667M92.3333 66.6667C92.2778 66.7222 92.2222 67.7778 92.6667 67.3333C92.7222 67.2778 92.7778 66.2222 92.3333 66.6667M103 66L104 67L103 66M139 66L140 67L139 66M154 66L155 67L154 66M31 67L32 68L31 67M95 67L96 68L95 67M100 67L101 68L100 67M136 67L137 68L136 67M29 68L30 69L29 68M108 68L109 69L108 68M111 68L112 69L111 68M140 68L141 69L140 68M157 68L158 69L157 68M28 69L29 70L28 69M62 69L62 76C63.0595 73.4657 63.0595 71.5343 62 69M72 69L72 74C72.8299 71.9695 72.8299 71.0305 72 69M96 69L97 70L96 69M101 69L102 70L101 69M104 69L105 70L104 69M119 69L119 74C119.83 71.9695 119.83 71.0305 119 69M141 69L142 70L141 69M154 69L155 70L154 69M158 69L159 70L158 69M20 70L21 71L20 70M93 70L94 71L93 70M107 70L108 71L107 70M110 70L111 71L110 70M138 70L139 71L138 70M155 70L156 71L155 70M19 71L20 72L19 71M25 71L26 72L25 71M83 71L84 72L83 71M86 71L87 72L86 71M97 71L98 72L97 71M139 71L140 72L139 71M156.333 71.6667C156.278 71.7222 156.222 72.7778 156.667 72.3333C156.722 72.2778 156.778 71.2222 156.333 71.6667M159 71L159 74C159.696 72.4463 159.696 72.5537 159 71M18 72L19 73L18 72M24 72L25 73L24 72M94 72L95 73L94 72M102 72L103 73L102 72M105.667 72.3333C105.222 72.7778 106.278 72.7222 106.333 72.6667C106.778 72.2222 105.722 72.2778 105.667 72.3333M109 72L110 73L109 72M17 73L18 74L17 73M82 73L83 74L82 73M85 73L86 74L85 73M140 73L141 74L140 73M16 74L17 75L16 74M98 74L99 75L98 74M103 74L104 75L103 74M108 74L109 75L108 74M141 74L142 75L141 74M149.333 74.6667C149.278 74.7222 149.222 75.7778 149.667 75.3333C149.722 75.2778 149.778 74.2222 149.333 74.6667M152 74C153.248 74.6848 153.548 74.7488 155 75C153.752 74.3152 153.452 74.2512 152 74M15 75L16 76L15 75M20 75L21 76L20 75M95 75L96 76L95 75M19 76L20 77L19 76M51 76C52.2484 76.6848 52.5484 76.7488 54 77C52.7516 76.3152 52.4516 76.2512 51 76M63 76C64.2484 76.6848 64.5484 76.7488 66 77C64.7517 76.3152 64.4516 76.2512 63 76M96 76C97.2484 76.6848 97.5484 76.7488 99 77C97.7517 76.3152 97.4516 76.2512 96 76M104 76C105.506 76.683 106.315 76.8259 108 77C106.494 76.317 105.685 76.1741 104 76M143 76C144.248 76.6848 144.548 76.7488 146 77C144.752 76.3152 144.452 76.2512 143 76M150 76C152.052 76.8742 153.747 76.9528 156 77C153.948 76.1258 152.253 76.0472 150 76M18 77L19 78L18 77M17 78L18 79L17 78M89 95C92.4671 93.9163 94.612 88.6358 98.061 88.6358C101.686 88.6358 103.517 93.8765 107 95C105.602 89.1141 102.594 83.8291 101 78C93.6336 78.5858 90.8147 88.7009 89 95M108 78L108 95C111.377 94.9978 115.893 95.6053 118.677 93.2577C121.594 90.7989 120.835 81.163 117.678 79.0278C115.137 77.3091 110.91 78.0003 108 78M127.094 78.7423C116.557 83.148 124.963 98.0036 134.985 94.1057C146.719 89.5417 138.041 74.1653 127.094 78.7423M141 78L147 95C153.92 93.8736 156.89 84.2292 158 78C152.977 79.7202 151.361 86.239 150 91C147.33 86.3042 146.573 79.7549 141 78M160 78L160 95L171 95L171 92L163 92L163 87L170 87L170 85L163 85L163 80L171 80L171 78L160 78M11 80L12 81L11 80z"/>
<path style="fill:#fefefe; stroke:none;" d="M111 80L111 85C117.127 84.5229 117.127 80.4771 111 80M129.228 80.7616C122.894 83.392 126.839 94.3054 133.852 91.392C140.08 88.8048 135.683 78.0813 129.228 80.7616z"/>
<path style="fill:#9ca4a9; stroke:none;" d="M10 81L11 82L10 81z"/>
<path style="fill:#fefefe; stroke:none;" d="M98 81C97.11 82.7447 96.5471 84.125 96 86L100 86C99.6137 83.8573 99.2549 82.7505 98 81z"/>
<path style="fill:#9ca4a9; stroke:none;" d="M9 82L10 83L9 82M7 85L8 86L7 85M6 86L7 87L6 86z"/>
<path style="fill:#fefefe; stroke:none;" d="M111 87L111 92C114.692 91.8796 116.777 91.6867 118 88C115.623 87.428 113.442 87.1095 111 87z"/>
<path style="fill:#9ca4a9; stroke:none;" d="M7 88L8 89L7 88M4 89L5 90L4 89M6 89L7 90L6 89M5 90L6 91L5 90M2 93C3.58 92.3164 3.77722 92.1952 5 91C3.42 91.6836 3.22278 91.8048 2 93z"/>
<path style="fill:#1181c1; stroke:none;" d="M2 93L3 94L2 93z"/>
<path style="fill:#9ca4a9; stroke:none;" d="M1 94L1 96C2.63516 95.4549 2.45495 95.6352 3 94L1 94z"/>
</svg>
