<?xml version="1.0" standalone="yes"?>
<svg xmlns="http://www.w3.org/2000/svg" width="114" height="114">
<path style="fill:#3241f5; stroke:none;" d="M0 0L0 114L114 114L114 0L0 0z"/>
<path style="fill:#eff0fd; stroke:none;" d="M25 88L38 88L39 87L39 78L39 76L39 75L39.1111 73L39.3333 72L39.6944 71L40.8611 69L41.5278 68.0556L42.0833 67.0556L42.4722 66.5L43 65L49 65L51 65L53 64.9167L55 64.6111L56 64.3889L58 64.0556L59 63.9167L61 63.3611L63 62.3056L64 61.6667L65.9167 60.3056L66.7778 59.5833L67.5833 58.7778L68.9167 56.9722L69.4722 56L70.5 54L71.3889 52L71.8889 50L71.9722 49L72 47.0556L72 46.0556L72 44L72.7222 45.5L72.75 46.0556L72.9444 47.0556L72.9722 48L73 49L73 49.9444L73 53L78 53L78 69L78 72L78 74L78 75L78.0833 77L78.4167 79L78.6944 80L79.3333 82L80.1111 83.9722L80.6389 84.9167L82.1111 86.5278L84 87.7222L85 88.1389L86 88.5278L87 88.75L89 88.9722L90 89L91 89L93 88.9167L94 88.7778L95.9444 88.3889L96.9444 88.2222L97.5 88.0833L99 88L100 87L100 84.9444L99.9722 83.9444L99.9167 83L99.6111 81.0556L99.25 79.5L99 78L97.5 77.6389L95.9722 76.6667L95.0833 75.8889L93.5 74L92.5 72L92.25 71L92.0278 69L92 67L92 65L92 63L92 62L92.0278 60L92.1111 59L92.3056 58L93 56.0556L93.3889 55.0556L93.6667 54.5L94 53L98 53L99 52L99 44L97.5 43.1667L96.9444 42.9167L95.9444 42.3333L95.0278 41.6944L93.3333 39.9722L92.3333 38L92.1111 37L91.9167 35L91.6111 33L91.2222 31.0556L91.0833 30.5L91 29L89.5 29.0833L88.9444 29.2222L87.9444 29.3889L87 29.6389L86 29.8611L84 30.4444L82.0556 31.1944L81.5 31.5L80 32L80 35L78.5 35.3611L77.9444 35.6944L76.0556 36.7778L75.0556 37.3056L74.5 37.6389L73 38L72.75 36.5L72.5833 35.9444L71.8889 34L71.3611 33.0278L69.8889 31.3056L68.9722 30.6111L67 29.4722L66 28.9167L64 27.6667L63 27.0278L62 26.4167L60 25.5L58 25.0833L57 25.0278L55 25L53 25L40 25L35 25L33 25L32 25L31 25L29 25.1111L27.1111 25.7222L25.6389 27.1111L24.7222 29L24.4167 30L24.0833 32L24 34L24 35L24 37L24 44L24 67L24 75L24 77L24.0278 79L24.0833 80L24.3889 82L24.6111 83L24.9167 84.9444L24.9722 85.9444L25 88z"/>
<path style="fill:#3241f5; stroke:none;" d="M42.0278 38.7222L41.1111 39.3333L39.7222 41.0278L39.3333 42L39.1111 43L39 45L39.1111 47L39.3056 48L39.6389 48.9722L40.7222 50.75L41.4167 51.5L43.0833 52.5L45 52.9167L46 52.9722L48 52.9167L50 52.5833L51 52.2778L53 51.3611L54.8889 49.8889L55.6667 48.9722L56.6667 47L56.8611 46L56.6667 44.0278L56.2778 43.0833L54.8889 41.4167L53 40.0833L51 39.0833L49 38.4167L47 38.0833L46 38.0278L45 38.0278L44 38.1111L42.0278 38.7222z"/>
</svg>
