<?xml version="1.0" standalone="yes"?>
<svg xmlns="http://www.w3.org/2000/svg" width="180" height="180">
<path style="fill:#fffefe; stroke:none;" d="M0 0L0 180C4.24199 177.189 4.70344 171.68 5.87346 167C8.29572 157.311 10.9513 147.686 13.3735 138C17.0467 123.311 20.9549 108.687 24.6265 94C30.014 72.4501 35.1904 52.5804 51.0394 36C60.7122 25.8808 72.0628 17.0067 85 11.4282C112.426 -0.397705 149.331 -1.93459 167.895 26C170.716 30.2456 172.557 35.0893 173.844 40C175.411 45.976 175.483 52.8641 174.826 59C171.24 92.4996 140.503 120.666 110 130.996C98.7424 134.809 85.9169 137.402 74 135.7C66.4468 134.621 59.48 131.12 52 130C48.2339 146.428 40.3728 163.193 39 180L180 180L180 0L0 0z"/>
<path style="fill:#d32c22; stroke:none;" d="M2 180L39 180C41.2939 162.979 49.5001 146.991 52 130C58.7355 131.595 65.1368 134.324 72 135.536C80.6272 137.061 90.4826 136.119 99 134.335C136.493 126.48 174.984 93.6945 175 53C175.004 43.0172 173.559 33.5236 167.895 25C155.491 6.33502 132 0.950195 111 3.8696C70.7562 9.46425 38.1971 38.7056 28.3735 78C19.8563 112.069 11.0661 146.086 2 180z"/>
<path style="fill:#fffefe; stroke:none;" d="M104 41.4645C89.0125 44.1619 74.6941 54.4339 69.3835 69C62.0364 89.1519 77.7402 104.751 98 101.561C113.876 99.0609 128.91 87.637 133.779 72C139.869 52.4448 122.849 38.0721 104 41.4645z"/>
</svg>
