<?xml version="1.0" standalone="yes"?>
<svg xmlns="http://www.w3.org/2000/svg" width="1352" height="2200">
<path style="fill:#010101; stroke:none;" d="M0 0L0 2200L1352 2200L1352 0L0 0z"/>
<path style="fill:#f6f6f6; stroke:none;" d="M617 33C609.322 30.572 600.927 30.0049 593 28.5757C573.053 24.9792 553.047 22.6868 533 19.8696C526.387 18.9404 519.689 17.2427 513 17.0432C510.135 16.9578 506.748 17.0569 504.743 19.4336C499.817 25.2734 508.958 37.7886 512 43C487.216 49.1045 461.818 52.0427 437 57.6504C431.342 58.9287 425.649 60.0332 420 61.3503C417.123 62.0212 413.853 62.4753 412.179 65.2285C406.927 73.8652 419.827 86.3804 425 92C417.936 95.6643 412.956 102.402 407 107.576C388.02 124.063 371.311 143.723 355.247 163C305.156 223.109 266.984 291.143 241.344 365C232.983 389.084 229.377 414.525 222.356 439C219.667 448.377 211.342 452.047 203.985 457.429C193.497 465.102 183.542 473.426 174.17 482.424C145.022 510.409 121.738 547.585 115.439 588C114.225 595.791 115 604.13 115 612C115 631.019 116.239 649.148 118.718 668C126.618 728.073 143.717 785.446 162.029 843C166.429 856.83 172.058 870.375 177.053 884C178.859 888.926 181.589 893.838 182.621 899C184.257 907.18 183 916.673 183 925L183 976L183 1136C191.143 1133.37 190 1127.37 190 1120L190 1083L190 917C201.442 938.484 209.659 962.035 220.258 984C224.156 992.076 228.23 999.987 232.247 1008C234.472 1012.44 237.552 1017.11 238.61 1022C239.902 1027.98 239 1034.91 239 1041L239 1079L239 1197C245.644 1192.16 245 1186.56 245 1179L245 1155L245 1034C257.22 1050.82 265.984 1070.93 276.281 1089C280.062 1095.64 283.67 1102.35 287.424 1109C289.566 1112.79 292.539 1116.72 293.582 1121C295.159 1127.47 294 1135.37 294 1142L294 1185L294 1320C301.252 1315.83 301 1309.49 301 1302L301 1273L301 1134C312.991 1150.51 321.961 1170.16 331.861 1188C336.859 1197.01 345.124 1206.92 347.582 1217C349.015 1222.88 348 1229.98 348 1236L348 1275L348 1397C355.54 1393.44 355 1387.37 355 1380L355 1355L355 1229C367.022 1249.39 379.266 1270.05 390.255 1291C393.991 1298.12 401.131 1306.11 402.722 1314C404.482 1322.72 403 1333.11 403 1342L403 1398C403 1407.2 401.386 1418.16 404 1427C412.719 1420.65 410 1408.69 410 1399L410 1326C420.289 1341.55 429.976 1357.46 440.333 1373C445.741 1381.11 453.698 1389.87 457.157 1399C459.647 1405.58 457 1413.23 459 1420C463.571 1417.8 464.839 1414.96 465 1410C482.205 1432.38 497.977 1456.52 513.667 1480C517.822 1486.22 522.785 1491.8 526.924 1498C528.394 1500.2 530.887 1503.03 531.305 1505.71C531.646 1507.9 529.946 1510.03 529.255 1512.01C528.127 1515.24 527.628 1518.71 526.706 1522C522.475 1537.11 516.133 1551.74 512.503 1567C510.085 1577.17 506.813 1587.07 503.515 1597C499.698 1608.5 495.353 1620.39 484 1626.72C476.679 1630.8 467.971 1629.54 460 1630.09C443.998 1631.19 428.011 1631.74 412 1632.91C396.369 1634.06 381.163 1635.15 370.213 1648C361.887 1657.77 358.996 1670.51 359 1683C359.002 1687.78 358.45 1695.19 365.015 1695.66C369.151 1695.96 372.257 1692.58 375 1690C378.871 1686.35 382.989 1682.63 388 1680.61C396.554 1677.17 407.945 1679 417 1679L461 1679C468.848 1679 477.223 1679.82 485 1678.7C493.654 1677.45 503.498 1673.98 511 1669.55C514.812 1667.29 520.415 1661.71 525 1661.78C527.855 1661.82 530.634 1664.22 533 1665.57C537.514 1668.16 542.249 1670.56 547 1672.69C558.106 1677.65 570.925 1680.08 583 1680.91C600.93 1682.14 619.043 1680 637 1680C642.589 1680 651.929 1677.35 656.91 1680.03C660.976 1682.22 663.503 1687.4 666.154 1691C671.345 1698.05 676.654 1705.08 682.011 1712C702.547 1738.53 722.402 1766.08 743.84 1791.83C764.699 1816.88 784.148 1843.2 805.301 1868C855.195 1926.49 909.66 1980.66 964 2035C1000.92 2071.92 1039.15 2107.12 1081 2138.37C1099.88 2152.48 1119.3 2168.96 1141 2178.42C1160.2 2186.8 1177.63 2193.97 1199 2194C1205.29 2194.01 1212.1 2194.68 1218 2192.03C1228.48 2187.33 1232.58 2175.4 1234.79 2165C1236.8 2155.54 1236 2145.62 1236 2136C1236 2117.94 1235.4 2099.94 1233.29 2082C1230.09 2054.9 1230.78 2027.21 1228.91 2000C1226.24 1960.99 1222.88 1921.93 1219.17 1883C1217.59 1866.4 1216.23 1849.64 1215.09 1833C1214.68 1827.02 1215.4 1820.97 1214.83 1815C1213.02 1795.95 1209.77 1776.96 1207.13 1758C1199.2 1701.09 1191.72 1644.01 1184.71 1587C1181.06 1557.23 1175.29 1527.72 1171.28 1498C1165.31 1453.66 1160.53 1409.11 1152.58 1365C1141.04 1301.02 1125.03 1238.02 1109.38 1175C1103.28 1150.47 1097.99 1125.58 1092.1 1101C1083.49 1065.06 1072.52 1029.74 1063.16 994C1043.11 917.542 1024.16 840.403 996.947 766C985.248 734.018 971.118 703.628 956.395 673C941.838 642.718 923.16 611.806 899.92 587.286C884.11 570.605 866.707 555.354 846 544.969C837.853 540.883 829.64 537.101 821 534.17C817.11 532.85 810.575 532.2 807.589 529.272C803.48 525.245 803.948 515.284 801.099 510C796.91 502.232 791.782 495.193 788.334 487C782.404 472.908 778.507 457.113 776.425 442C769.401 391.005 794.849 343.136 830 308C835.669 302.333 842.681 297.394 847.529 291C850.494 287.091 851.877 281.144 857.043 279.573C862.2 278.004 867.806 279.555 873 279.911C879.287 280.341 885.699 280 892 280C924.687 280 957.322 283 990 283C1020.66 283 1051.42 283.951 1082 284C1088.99 284.011 1096.01 284.205 1103 283.985C1106.7 283.868 1110.06 283.139 1110.76 278.956C1112.64 267.648 1102.77 254.999 1096.19 246.985C1077.13 223.776 1049.27 206.92 1022 194.862C975.065 174.11 925.889 158.724 876 146.749C860.879 143.12 845.268 140.166 830 137.003C821.822 135.309 812.371 134.859 805 130.634C794.473 124.598 786.032 112.827 777.914 104C759.17 83.6174 741.688 61.4546 721.996 42.0146C717.293 37.3721 706.279 26.5027 700.086 35.2285C698.894 36.908 698.311 39.0547 697.721 41C696.921 43.6428 696.368 46.2703 696 49C676.973 38.988 657.677 29.3042 639 18.6636C633.876 15.7446 623.5 6.62622 617.434 11.7432C611.923 16.3918 616.522 27.1472 617 33z"/>
<path style="fill:#010101; stroke:none;" d="M620 17C621.472 24.5881 623.839 32.2546 624 40C613.348 39.5417 602.556 36.99 592 35.4275C575.643 33.0066 559.318 30.323 543 27.5864C532.191 25.7737 520.975 23.0908 510 23C511.049 28.887 514.308 33.8142 517.138 39C518.306 41.1394 520.341 44.2083 519.006 46.6968C517.735 49.0662 514.34 49.4817 512 49.9993C506.003 51.3257 500.052 52.4199 494 53.4353C476.904 56.3035 459.999 60.4214 443 63.8003C434.522 65.4856 425.652 67.8218 417 68C419.009 74.2932 423.521 79.0398 427.728 84C429.468 86.0505 432.802 89.0049 432.373 92C431.877 95.4622 427.434 98.46 425 100.576C418.532 106.197 412.213 112.172 406.015 118.089C384.946 138.2 364.929 160.731 347.374 184C309.579 234.098 276.745 287.835 255.053 347C248.229 365.614 242.097 384.743 237.374 404C234.276 416.634 232.427 429.438 229 442C241.392 440.988 253.472 436.948 266 436.089C303.076 433.55 340.974 434.553 378 437.089C412.793 439.473 447.626 445.128 482 450.919C557.162 463.58 631.281 480.734 705 500.154C736.429 508.434 767.338 519.741 799 527C798.929 519.13 794.964 514.647 791.312 508C786.198 498.695 781.707 488.968 778.053 479C767.356 449.819 766.388 417.07 773.503 387C779.827 360.276 796.003 334.221 814.169 314C820.82 306.597 827.874 299.934 835 293.014C839.839 288.315 844.74 284.956 846 278C840.697 275.362 836.022 271.569 831 268.424C814.137 257.865 797.897 246.306 781 235.808C775.626 232.469 770.382 228.935 765.005 225.6C762.807 224.237 759.844 222.785 759.531 219.896C759.203 216.868 761.473 213.586 762.752 211C765.529 205.388 768.014 199.638 770.742 194C777.442 180.15 784.185 166.123 790.281 152C792.861 146.023 796.268 140.283 798 134C787.588 127.487 779.978 117.021 771.83 108C757.95 92.6321 744.141 77.1511 730.025 62C722.888 54.3401 715.584 42.4724 706 38C704.493 42.6343 703.312 47.3628 701.829 51.9946C701.279 53.7139 700.618 55.9045 698.721 56.5818C696.512 57.3711 693.899 55.6843 692 54.7507C687.247 52.4138 682.677 49.7043 678 47.22C665.288 40.4678 652.655 33.5518 640 26.6914C633.516 23.1765 627.13 19.054 620 17z"/>
<path style="fill:#f6f6f6; stroke:none;" d="M667 104.518C636.981 110.923 629.683 150.635 652.004 169.787C660.95 177.463 674.773 178.726 686 176.331C709.326 171.354 719.187 142.065 708.095 122C700.197 107.713 682.65 101.179 667 104.518z"/>
<path style="fill:#010101; stroke:none;" d="M671 111.465C665.595 112.439 660.182 114.575 656.015 118.213C634.655 136.862 651.241 175.43 680 170.384C685.129 169.484 689.857 167.694 693.996 164.471C717.677 146.028 701.118 106.037 671 111.465M1105 279C1101.13 253.152 1073.85 232.177 1053 219.601C1000.35 187.839 940.237 170.183 881 155.373C862.228 150.68 843.178 145.572 824 142.87C818.974 142.161 808.962 138.185 804.39 141.032C800.743 143.303 799.382 149.319 797.691 153C793.39 162.367 788.7 171.548 784.576 181C780.746 189.778 776.304 198.297 772.309 207C770.967 209.922 768.018 214.571 768.816 217.896C769.695 221.554 775.15 223.776 778 225.667C787.298 231.837 796.717 237.811 806 244C815.618 250.412 825.35 256.635 835 262.997C839.827 266.179 845.409 270.88 851 272.49C860.055 275.097 871.615 272.628 881 273.039C906.961 274.176 932.978 275 959 275C979.287 275 999.726 276.489 1020 276.985C1048.31 277.679 1076.79 276.773 1105 279M281 442.424C262.541 444.848 239.576 443.342 223 453.018C206.958 462.382 192.087 474.914 179 488C153.859 513.14 133.619 542.097 124.895 577C117.188 607.835 122.131 638.984 125.845 670C135.326 749.188 162.273 824.736 190.05 899C201.175 928.742 215.463 957.191 228.691 986C233.969 997.493 239.361 1008.97 245.576 1020C248.072 1024.43 249.848 1029.82 253.39 1033.54C263.968 1044.65 279.95 1052.57 293 1060.4C322.549 1078.13 353.196 1093.85 384 1109.25C486.274 1160.38 591.849 1204.06 697 1248.85C745.3 1269.42 794.243 1288.56 843 1308C856.318 1313.31 869.657 1318.55 883 1323.8C887.56 1325.59 894.956 1330.05 899.907 1329.47C903.54 1329.05 905.261 1324.77 906.85 1322L919.281 1300C936.977 1268.87 953.237 1237.02 969.247 1205C993.888 1155.72 1015.82 1104.7 1032.02 1052C1038.96 1029.45 1044.82 1006.49 1047.17 983C1047.72 977.445 1049.04 971.583 1048.87 966C1048.65 958.39 1045.13 950.311 1043.15 943C1039 927.671 1035.09 912.26 1030.71 897C1016.78 848.512 1002.4 800.246 984.575 753C958.496 683.861 923.653 610.687 864 564.425C852.447 555.465 838.753 547.704 825 542.695C817.8 540.073 810.264 538.733 803 536.405C773.887 527.075 744.338 519.34 715 510.795C619.68 483.03 521.521 461.854 423 449.715C388.05 445.409 353.227 442 318 442C305.859 442 293.044 440.843 281 442.424M1054 986C1052.84 1012.91 1042.95 1040.51 1035.03 1066C1014.41 1132.34 982.19 1194.12 951.247 1256C940.716 1277.06 928.871 1297.58 917.15 1318C914.17 1323.19 909.362 1336.32 902.957 1337.64C898.589 1338.54 892.96 1335.35 889 1333.8C878.647 1329.73 868.397 1325.38 858 1321.42C817.724 1306.1 778.001 1289.4 738 1273.4C656.255 1240.7 575.008 1206.04 495 1169.31C428.342 1138.71 361.706 1108.09 298 1071.57C285.699 1064.52 274.047 1056.43 262 1049C266.704 1061.93 275.442 1074 282.14 1086C296.87 1112.39 312.264 1138.45 326.691 1165C346.604 1201.65 367.813 1237.58 388.14 1274C398.534 1292.62 409.329 1310.36 421.255 1328C431.644 1343.36 440.96 1357.4 455.001 1369.83C475.861 1388.3 502.935 1399.95 529 1408.92C579.173 1426.18 632.464 1430.74 685 1433.04C724.753 1434.78 764.35 1433.82 804 1431.09C821.399 1429.89 838.689 1429.28 856 1426.73C894.385 1421.07 931.926 1410.89 969 1399.72C1002.69 1389.57 1036.15 1375.77 1066 1357.05C1086.31 1344.31 1105.34 1328.56 1116.68 1307C1123.52 1293.99 1125.78 1278.56 1123.7 1264C1122.91 1258.5 1120.66 1253.39 1119.52 1248C1117.34 1237.72 1115.94 1227.3 1113.37 1217C1100.02 1163.34 1087.61 1109.4 1073.15 1056C1068.91 1040.36 1065.02 1024.65 1060.88 1009C1058.93 1001.6 1057.61 992.734 1054 986M1129 1293C1126.1 1312.61 1110.28 1330.54 1096 1343.16C1060.51 1374.49 1015.33 1391.89 971 1406.67C883.389 1435.87 788.82 1445.06 697 1441.04C635.808 1438.36 573.932 1433.42 516 1411.57C501.896 1406.26 487.875 1400.08 475 1392.19C466.775 1387.15 459.354 1380.76 451 1376C453.752 1383.26 459.371 1389.56 463.667 1396C472.882 1409.82 482.521 1423.35 491.975 1437C523.106 1481.95 554.774 1526.52 586.573 1571C639.513 1645.05 694.468 1717.8 751.199 1789C780.547 1825.83 809.586 1863.03 841.17 1898C886.976 1948.72 935.629 1996.71 984 2045C1016.24 2077.19 1050.56 2106.54 1087 2133.87C1106.39 2148.42 1126.09 2164.14 1148 2174.74C1163.17 2182.08 1182.04 2187.79 1199 2188C1206.33 2188.08 1213.29 2188.42 1218.9 2182.89C1234.03 2167.96 1230 2142.2 1230 2123C1230 2108.34 1228.09 2093.61 1227.09 2079L1219.09 1961C1215.34 1906.26 1211.3 1851.66 1205.83 1797C1197.87 1717.4 1184.51 1638.2 1173.29 1559C1166.35 1510.06 1160.93 1460.88 1153.73 1412C1149.74 1384.94 1144.46 1357.79 1139 1331C1136.42 1318.37 1132.65 1305.79 1131 1293L1129 1293M536 1513C529.841 1539.62 520.105 1565.89 512.025 1592C507.305 1607.25 503.401 1622.17 489 1631.45C479.424 1637.62 467.922 1636.95 457 1637C445.403 1637.06 433.571 1638.1 422 1638.91C405.633 1640.06 384.481 1638.6 374.105 1654C371.453 1657.94 369.423 1662.47 368.039 1667C365.921 1673.94 366 1680.83 366 1688C372.894 1683.16 378.587 1676.03 387 1673.64C395.684 1671.17 407.007 1673 416 1673C436.662 1673 457.34 1673.24 478 1673C489.169 1672.86 500.454 1667.59 510 1662.13C514.311 1659.66 519.816 1653.24 525 1653.49C530.243 1653.75 535.452 1659.39 540 1661.74C549.855 1666.84 560.178 1670.68 571 1673.11C579.932 1675.12 589.885 1674 599 1674C617.06 1674 635.006 1673.77 653 1673C647.371 1663.88 639.928 1656.19 633.08 1648C630.046 1644.37 626.855 1639.54 622 1638.32C616.19 1636.86 609.826 1638.71 604 1638.96C587.615 1639.68 564.129 1638.93 553.649 1624C543.917 1610.14 554.494 1586.41 560.782 1573C562.776 1568.75 566.631 1563.74 567.135 1559C567.632 1554.33 562.654 1549.52 560.141 1546C552.394 1535.14 545.268 1522.6 536 1513M572 1564C566.425 1577.39 559.56 1589.44 557.576 1604C556.852 1609.32 556.036 1616.11 558.938 1620.96C562.07 1626.19 568.589 1627.55 574 1629.25C589.17 1634.03 606.288 1632 622 1632C618.232 1624.07 612.071 1617.06 606.884 1610C595.758 1594.85 583.891 1580.02 574 1564L572 1564z"/>
</svg>
