<?xml version="1.0" standalone="yes"?>
<svg xmlns="http://www.w3.org/2000/svg" width="237" height="219">
<path style="fill:#fefefe; stroke:none;" d="M0 0L0 219L237 219L237 0L0 0z"/>
<path style="fill:#060606; stroke:none;" d="M47 99C52.0277 101.489 55.2282 106.697 60 109.86C68.571 115.542 78.8204 120.304 88 125C81.9522 136.083 80.7223 151.151 71 160L72 164C67.0413 165.777 65.234 170.336 60.9846 173.185C56.7788 176.005 51.4645 176.769 47.2793 179.532C44.9593 181.063 44.1144 183.053 46 185L45 189C46.8372 190.046 49.1195 192.014 51.287 192.213C54.8114 192.536 57.8892 189.028 61 187.843C64.1459 186.645 67.3308 187.055 70.2816 185.196C83.6376 176.781 86.2815 161.712 93.6644 149.156C98.6149 140.736 106.789 130.708 104.592 120.015C102.186 108.308 84.7056 106.181 76.0008 101.489C62.5248 94.2257 52.976 76.2016 53.7531 61C54.2117 52.0285 58.5668 43.2044 65.831 38.1574C69.7579 35.4292 73.1221 33.7084 77.5903 36.4599C82.9341 39.7505 88.8195 43.2065 93.7369 47.0941C97.6104 50.1564 99.2553 53.8674 104 56C104.279 62.5929 108.537 67.7555 110 74C113.559 75.8495 114.867 78.1954 116 82L121 81C118.938 88.285 122.279 91.0606 125.637 97.1304C128.093 101.57 129.692 106.45 131.929 110.975C133.19 113.526 135.358 115.487 136.502 118.09C139.004 123.782 138.894 128.727 145 132L144 135C150.003 138.381 150.931 144.801 153.66 150.576C157.734 159.194 164.195 168.673 173 173C172.513 178.039 176.447 179.115 179.196 182.783C183.169 188.086 190.221 192.952 196.09 195.992C198.548 197.265 201.433 197.167 203.91 198.452C210.082 201.654 217.713 206.492 223.123 198.279C225.647 194.446 219.947 189.418 216.896 187.753C211.763 184.952 206.011 183.251 201.054 180.028C198.537 178.391 196.914 175.821 194.675 173.866C190.704 170.397 186.249 167.649 182.404 163.995C178.407 160.198 177.356 154.086 173 151C174.1 145.306 170.542 141.73 167.852 137C164.597 131.278 161.53 125.482 157.701 120.09C152.893 113.32 147.568 106.856 149 98C144.051 95.3614 143.129 89.5563 138 87C138.588 80.8216 134.048 77.1942 135 71L134 70C131.777 69.8276 131.396 69.7058 130 68C132.09 68.387 131.711 68.3837 132 66C126.164 62.5433 123.847 54.6161 120.486 49.0147C117.47 43.987 112.534 40.7722 108.325 36.8457C106.111 34.7805 104.535 32.1414 101.87 30.5895C99.4085 29.1557 96.5569 28.6519 94 27.4367C87.415 24.3073 79.7565 18.6388 72 19.3495C63.9424 20.0878 58.9604 24.3769 53.5725 29.7917C43.256 40.1597 36.6767 53.0932 36.5502 68C36.4535 79.3882 45.0648 88.3093 47 99z"/>
<path style="fill:#fefefe; stroke:none;" d="M56 31L57 32L56 31M63.6667 108.333C63.2223 108.778 64.2778 108.722 64.3333 108.667C64.7778 108.222 63.7222 108.278 63.6667 108.333M76 166C76.5451 167.635 76.3648 167.455 78 168C77.4549 166.365 77.6352 166.545 76 166M48 184L49 185L48 184z"/>
</svg>
